<svg xmlns="http://www.w3.org/2000/svg" xmlns:xlink="http://www.w3.org/1999/xlink" viewBox="0 0 340.42 328.57"><defs><style>.cls-1{isolation:isolate;}.cls-2{fill:#232222;}.cls-3{fill:#a5a6a9;}.cls-4{fill:url(#linear-gradient);}.cls-5{fill:url(#linear-gradient-2);}.cls-6{fill:url(#linear-gradient-3);}.cls-7{fill:url(#linear-gradient-4);}.cls-8{fill:url(#linear-gradient-5);}.cls-14,.cls-15,.cls-9{fill:#9fa9ca;}.cls-13,.cls-9{opacity:0.4;}.cls-13,.cls-15,.cls-9{mix-blend-mode:multiply;}.cls-10{fill:url(#linear-gradient-6);}.cls-11{fill:url(#linear-gradient-7);}.cls-12{opacity:0.2;fill:url(#linear-gradient-8);}.cls-15{opacity:0.6;}.cls-16{fill:url(#linear-gradient-9);}.cls-17{fill:url(#linear-gradient-10);}.cls-18{fill:url(#linear-gradient-11);}.cls-19{fill:#fff;}.cls-20{fill:url(#linear-gradient-12);}.cls-21{fill:url(#linear-gradient-13);}.cls-22{fill:url(#linear-gradient-14);}.cls-23{fill:url(#linear-gradient-15);}.cls-24{fill:url(#linear-gradient-16);}.cls-25{fill:url(#linear-gradient-17);}.cls-26{fill:url(#linear-gradient-18);}.cls-27{fill:url(#linear-gradient-19);}.cls-28{fill:url(#linear-gradient-20);}.cls-29{fill:url(#linear-gradient-21);}.cls-30{fill:url(#linear-gradient-22);}.cls-31{fill:url(#linear-gradient-23);}.cls-32{fill:url(#linear-gradient-24);}.cls-33{fill:url(#linear-gradient-25);}.cls-34{opacity:0.65;mix-blend-mode:screen;}.cls-35{fill:url(#linear-gradient-26);}.cls-36,.cls-43{mix-blend-mode:overlay;}.cls-37{fill:url(#linear-gradient-27);}.cls-38{fill:url(#linear-gradient-28);}.cls-39{fill:url(#linear-gradient-29);}.cls-40{fill:url(#linear-gradient-30);}.cls-41{fill:url(#linear-gradient-31);}.cls-42{fill:url(#linear-gradient-32);}.cls-43{opacity:0.75;}.cls-44,.cls-45,.cls-46,.cls-47,.cls-48{mix-blend-mode:color-dodge;}.cls-44{fill:url(#radial-gradient);}.cls-45{fill:url(#radial-gradient-2);}.cls-46{fill:url(#radial-gradient-3);}.cls-47{fill:url(#radial-gradient-4);}.cls-49{fill:#73b4c7;}</style><linearGradient id="linear-gradient" x1="373.75" y1="320.97" x2="346.98" y2="415.85" gradientUnits="userSpaceOnUse"><stop offset="0" stop-color="#a6a8ac"/><stop offset="0" stop-color="#d1d2d4"/><stop offset="0.12" stop-color="#8a9197"/><stop offset="0.14" stop-color="#92989d"/><stop offset="0.27" stop-color="#bcbfc1"/><stop offset="0.37" stop-color="#d6d7d7"/><stop offset="0.43" stop-color="#e0e0df"/><stop offset="0.47" stop-color="#d5d6d5"/><stop offset="0.54" stop-color="#b7baba"/><stop offset="0.63" stop-color="#878c8e"/><stop offset="0.74" stop-color="#464f52"/><stop offset="0.79" stop-color="#696f70"/><stop offset="0.89" stop-color="#a7a7a6"/><stop offset="0.96" stop-color="#cecbc8"/><stop offset="1" stop-color="#ddd8d5"/><stop offset="1" stop-color="#e5e1de"/></linearGradient><linearGradient id="linear-gradient-2" x1="416.57" y1="319.06" x2="269.19" y2="452.33" xlink:href="#linear-gradient"/><linearGradient id="linear-gradient-3" x1="418.89" y1="317.87" x2="412.83" y2="400.53" xlink:href="#linear-gradient"/><linearGradient id="linear-gradient-4" x1="417.46" y1="292.31" x2="420.21" y2="448.55" xlink:href="#linear-gradient"/><linearGradient id="linear-gradient-5" x1="343.9" y1="375.13" x2="324.15" y2="394.89" xlink:href="#linear-gradient"/><linearGradient id="linear-gradient-6" x1="305.71" y1="109.79" x2="308.14" y2="236.99" gradientUnits="userSpaceOnUse"><stop offset="0" stop-color="#565656" stop-opacity="0"/><stop offset="0.14" stop-color="#545454" stop-opacity="0.22"/><stop offset="0.41" stop-color="#4f4f4f" stop-opacity="0.78"/><stop offset="0.51" stop-color="#4d4d4d"/><stop offset="1" stop-color="#5c5c5c" stop-opacity="0"/></linearGradient><linearGradient id="linear-gradient-7" x1="454.62" y1="8.22" x2="454.62" y2="167.09" xlink:href="#linear-gradient"/><linearGradient id="linear-gradient-8" x1="385.41" y1="126.15" x2="451.96" y2="257.67" gradientUnits="userSpaceOnUse"><stop offset="0" stop-color="#72b7e3"/><stop offset="0.11" stop-color="#71b5e2" stop-opacity="0.98"/><stop offset="0.24" stop-color="#6fb0de" stop-opacity="0.91"/><stop offset="0.39" stop-color="#6aa8d8" stop-opacity="0.8"/><stop offset="0.54" stop-color="#649ccf" stop-opacity="0.65"/><stop offset="0.7" stop-color="#5d8dc4" stop-opacity="0.46"/><stop offset="0.86" stop-color="#547bb7" stop-opacity="0.23"/><stop offset="1" stop-color="#4b69aa" stop-opacity="0"/></linearGradient><linearGradient id="linear-gradient-9" x1="408.52" y1="444.91" x2="548.98" y2="444.91" gradientTransform="translate(-160.08 285.07) rotate(-32.13)" xlink:href="#linear-gradient-6"/><linearGradient id="linear-gradient-10" x1="-298.88" y1="-2.99" x2="-158.41" y2="-2.99" gradientTransform="matrix(-0.87, -0.49, -0.49, 0.87, 127.47, 279.81)" xlink:href="#linear-gradient-6"/><linearGradient id="linear-gradient-11" x1="138.06" y1="159.53" x2="258" y2="159.53" gradientUnits="userSpaceOnUse"><stop offset="0" stop-color="#72b7e3"/><stop offset="0.2" stop-color="#6fb2df"/><stop offset="0.45" stop-color="#68a3d4"/><stop offset="0.72" stop-color="#5c8bc3"/><stop offset="1" stop-color="#4b69aa"/></linearGradient><linearGradient id="linear-gradient-12" x1="442.75" y1="238.4" x2="500.73" y2="238.4" xlink:href="#linear-gradient-11"/><linearGradient id="linear-gradient-13" x1="479.53" y1="226.49" x2="488.05" y2="226.49" xlink:href="#linear-gradient-11"/><linearGradient id="linear-gradient-14" x1="483.74" y1="223.89" x2="492.79" y2="223.89" gradientUnits="userSpaceOnUse"><stop offset="0" stop-color="#edde43"/><stop offset="1" stop-color="#af3f8d"/></linearGradient><linearGradient id="linear-gradient-15" x1="132.84" y1="78.3" x2="201.15" y2="63.27" xlink:href="#linear-gradient-11"/><linearGradient id="linear-gradient-16" x1="136.56" y1="95.2" x2="204.87" y2="80.18" xlink:href="#linear-gradient-11"/><linearGradient id="linear-gradient-17" x1="138.18" y1="102.57" x2="206.49" y2="87.55" xlink:href="#linear-gradient-11"/><linearGradient id="linear-gradient-18" x1="381.82" y1="178.11" x2="452.52" y2="175.72" xlink:href="#linear-gradient-11"/><linearGradient id="linear-gradient-19" x1="260.61" y1="202.04" x2="285.39" y2="202.04" xlink:href="#linear-gradient-14"/><linearGradient id="linear-gradient-20" x1="160.39" y1="113.33" x2="179.26" y2="113.33" xlink:href="#linear-gradient-14"/><linearGradient id="linear-gradient-21" x1="261.8" y1="114.76" x2="286.16" y2="114.76" xlink:href="#linear-gradient-14"/><linearGradient id="linear-gradient-22" x1="441.35" y1="223.28" x2="444.97" y2="223.28" xlink:href="#linear-gradient-11"/><linearGradient id="linear-gradient-23" x1="346.07" y1="199.65" x2="457.38" y2="199.65" xlink:href="#linear-gradient-11"/><linearGradient id="linear-gradient-24" x1="450.21" y1="228.4" x2="453.83" y2="228.4" gradientUnits="userSpaceOnUse"><stop offset="0" stop-color="#c0d59b"/><stop offset="1" stop-color="#5692cb"/></linearGradient><linearGradient id="linear-gradient-25" x1="432.51" y1="218.17" x2="436.13" y2="218.17" xlink:href="#linear-gradient-14"/><linearGradient id="linear-gradient-26" x1="345.89" y1="228.88" x2="457.34" y2="228.88" xlink:href="#linear-gradient-11"/><linearGradient id="linear-gradient-27" x1="492.65" y1="423.96" x2="539.09" y2="423.96" xlink:href="#linear-gradient-14"/><linearGradient id="linear-gradient-28" x1="518.15" y1="328.59" x2="521.77" y2="328.59" xlink:href="#linear-gradient-11"/><linearGradient id="linear-gradient-29" x1="422.81" y1="313.32" x2="534.13" y2="313.32" xlink:href="#linear-gradient-11"/><linearGradient id="linear-gradient-30" x1="527.01" y1="333.7" x2="530.63" y2="333.7" xlink:href="#linear-gradient-24"/><linearGradient id="linear-gradient-31" x1="422.87" y1="304.96" x2="534.17" y2="304.96" xlink:href="#linear-gradient-24"/><linearGradient id="linear-gradient-32" x1="509.3" y1="323.47" x2="512.92" y2="323.47" xlink:href="#linear-gradient-14"/><radialGradient id="radial-gradient" cx="156.37" cy="440.08" r="4.53" gradientTransform="translate(51.96 297.86) rotate(-63.75)" gradientUnits="userSpaceOnUse"><stop offset="0" stop-color="#fff"/><stop offset="0.03" stop-color="#f0f0f0"/><stop offset="0.14" stop-color="#bab9ba"/><stop offset="0.25" stop-color="#8a888b"/><stop offset="0.37" stop-color="#625f62"/><stop offset="0.49" stop-color="#413e42"/><stop offset="0.61" stop-color="#272428"/><stop offset="0.73" stop-color="#151216"/><stop offset="0.86" stop-color="#0b070c"/><stop offset="1" stop-color="#070308"/></radialGradient><radialGradient id="radial-gradient-2" cx="-2394.74" cy="-42.1" r="4.53" gradientTransform="matrix(-0.88, -0.83, 15.24, 8.8, -988.79, -1284.63)" xlink:href="#radial-gradient"/><radialGradient id="radial-gradient-3" cx="160.81" cy="367.78" r="3.5" xlink:href="#radial-gradient"/><radialGradient id="radial-gradient-4" cx="160" cy="379.87" r="6.49" xlink:href="#radial-gradient"/></defs><title>lapto-portada</title><g class="cls-1"><g id="Capa_1" data-name="Capa 1"><path class="cls-2" d="M549.14,353.18l-3-128.15c-.17-7.21-2.61-10.66-7.36-13.29L367,117.87c-1.76-1-3.35-1.28-4.56-.76h0s2.81-1.72,3.07-1.82h0c1.2-.49,2.78-.17,4.5.78L541.8,209.94c4.75,2.63,7.19,6.08,7.36,13.28l3,128.16c.08,3.44-.82,5.4-2.3,6.12L547.34,359C548.52,358.1,549.21,356.22,549.14,353.18Z" transform="translate(-242.23 -115.06)"/><polygon class="cls-3" points="304.5 244.3 304.5 244.3 304.5 244.3 304.5 244.3"/><path class="cls-2" d="M545.09,369.91a2.81,2.81,0,0,0,0-.65l-.15-6.48h0c-.13,1.61-1.33,3.3-3.58,4.67L431.86,434.13c-4.43,2.7-11.22,3.14-15.16,1L244.94,341.24a4.59,4.59,0,0,1-2.69-3.5h0l.16,6.94h0a4.54,4.54,0,0,0,2.71,3.72l171.76,93.87c3.94,2.15,10.73,1.71,15.15-1l109.49-66.67c2.24-1.37,3.44-3.05,3.58-4.65h0Z" transform="translate(-242.23 -115.06)"/><path class="cls-4" d="M290.49,305.26l-44.66,27.2c-4.43,2.7-4.83,6.63-.89,8.78L416.7,435.11c3.94,2.16,10.73,1.72,15.16-1l44.67-27.21Z" transform="translate(-242.23 -115.06)"/><path class="cls-5" d="M245.83,332.46c-2.16,1.31-3.34,2.92-3.55,4.46a4.47,4.47,0,0,0,2.66,3.67L416.7,434.46c3.94,2.16,10.73,1.72,15.16-1L476,406.61,290.49,305.26Z" transform="translate(-242.23 -115.06)"/><path class="cls-6" d="M476.53,406.92l64.81-39.47c4.43-2.7,4.82-6.63.88-8.78L370.46,264.8c-3.94-2.16-10.72-1.72-15.15,1l-64.82,39.48Z" transform="translate(-242.23 -115.06)"/><path class="cls-7" d="M542.22,358.67,370.46,264.8c-3.94-2.16-10.72-1.72-15.15,1l-63.84,38.88L476.7,405.88l64.81-39.47a7.18,7.18,0,0,0,3.39-3.86A4.39,4.39,0,0,0,542.22,358.67Z" transform="translate(-242.23 -115.06)"/><path class="cls-8" d="M318.13,379.72l28,15.31a.82.82,0,0,1,0,1.55l-30.74-16.8A3,3,0,0,1,318.13,379.72Z" transform="translate(-242.23 -115.06)"/><polygon class="cls-2" points="139.57 158.16 284.8 237.54 286.73 236.36 141.5 156.99 139.57 158.16"/><path class="cls-9" d="M476.53,406.92l64.81-39.47c4.43-2.7,4.82-6.63.88-8.78L370.46,264.8c-3.94-2.16-10.72-1.72-15.15,1l-64.82,39.48Z" transform="translate(-242.23 -115.06)"/><polygon class="cls-10" points="303.91 109.97 306.91 238.12 309.94 236.28 306.93 108.13 303.91 109.97"/><path class="cls-11" d="M370.46,264.8l171.76,93.87c3.94,2.15,7.07.8,6.92-5.49l-3-128.15c-.17-7.21-2.61-10.66-7.36-13.29L367,117.87c-3.94-2.15-7.07-1.09-6.92,5.49l3,128.15C363.3,259.89,366.15,262.45,370.46,264.8Z" transform="translate(-242.23 -115.06)"/><path class="cls-2" d="M366.57,118.62,539.28,213a12.55,12.55,0,0,1,5.92,9.69l3.09,131.84c.09,3.6-2.43,5.12-5.62,3.38L370,263.53a12.55,12.55,0,0,1-5.92-9.69L361,122C360.86,118.39,363.39,116.88,366.57,118.62Z" transform="translate(-242.23 -115.06)"/><path class="cls-2" d="M541.41,341.32l-2.83-120.58a1.16,1.16,0,0,0-.61-1L369.42,127.62a1.18,1.18,0,0,0-1.74,1.06l2.83,120.58a1.19,1.19,0,0,0,.61,1l168.55,92.11A1.17,1.17,0,0,0,541.41,341.32Z" transform="translate(-242.23 -115.06)"/><path class="cls-12" d="M499.43,198.67l-77.89-42.56-52.12-28.49a1.18,1.18,0,0,0-1.74,1.06l2.83,120.58a1.19,1.19,0,0,0,.61,1l23,12.58Z" transform="translate(-242.23 -115.06)"/><path class="cls-9" d="M321.66,357.59l23.09-14.06a5.59,5.59,0,0,1,5.07-.11l57.45,31.39c1.42.78,1.46,2.09.08,2.93L384.26,391.8Z" transform="translate(-242.23 -115.06)"/><g class="cls-13"><path class="cls-14" d="M352.5,375.55l30.8,16.83L370.81,400a5.59,5.59,0,0,1-5.07.11l-28.23-15.42Z" transform="translate(-242.23 -115.06)"/><path class="cls-14" d="M351.51,375l-15,9.12-28.23-15.42c-1.42-.78-1.46-2.09-.08-2.93l12.5-7.61Z" transform="translate(-242.23 -115.06)"/></g><path class="cls-15" d="M407.29,376.08l-57.44-31.39a5.62,5.62,0,0,0-5.07.1l-22,13.41-1.12-.61,23.09-14.06a5.59,5.59,0,0,1,5.07-.11l57.45,31.39c1,.55,1.3,1.36.91,2.09A2.17,2.17,0,0,0,407.29,376.08Z" transform="translate(-242.23 -115.06)"/><polygon class="cls-15" points="110.3 261.75 96.4 270.22 95.28 269.62 110.27 260.49 141.08 277.32 139.99 277.98 110.3 261.75"/><path class="cls-15" d="M320.74,359.44l-12.5,7.61a2.32,2.32,0,0,0-.84.84c-.41-.7-.15-1.52.81-2.11l12.5-7.61L351.51,375l-1.08.66Z" transform="translate(-242.23 -115.06)"/><path class="cls-2" d="M503.76,368.31l8.59,4.7a2.24,2.24,0,0,0,2-.13l8-4.88c.59-.36.64-.89.12-1.17l-8.6-4.7a2.24,2.24,0,0,0-2,.13l-8,4.88C503.28,367.5,503.23,368,503.76,368.31Z" transform="translate(-242.23 -115.06)"/><path class="cls-2" d="M492.13,362l8.59,4.69a2.24,2.24,0,0,0,2-.13l8-4.88c.59-.36.64-.88.12-1.17l-8.6-4.7a2.27,2.27,0,0,0-2,.13l-8,4.89C491.66,361.14,491.6,361.67,492.13,362Z" transform="translate(-242.23 -115.06)"/><path class="cls-2" d="M480.5,355.6l8.59,4.7a2.24,2.24,0,0,0,2-.13l8-4.88c.59-.36.64-.89.12-1.18l-8.6-4.69a2.24,2.24,0,0,0-2,.13l-8,4.88C480,354.79,480,355.31,480.5,355.6Z" transform="translate(-242.23 -115.06)"/><path class="cls-2" d="M468.87,349.25l8.59,4.69a2.26,2.26,0,0,0,2-.13l8-4.88c.59-.36.64-.88.12-1.17l-8.6-4.7a2.24,2.24,0,0,0-2,.13l-8,4.88C468.4,348.43,468.34,349,468.87,349.25Z" transform="translate(-242.23 -115.06)"/><path class="cls-2" d="M457.24,342.89l8.6,4.7a2.27,2.27,0,0,0,2-.13l8-4.89c.59-.36.64-.88.12-1.17l-8.6-4.69a2.24,2.24,0,0,0-2,.13l-8,4.88C456.77,342.08,456.72,342.6,457.24,342.89Z" transform="translate(-242.23 -115.06)"/><path class="cls-2" d="M445.61,336.53l8.6,4.7a2.24,2.24,0,0,0,2-.13l8-4.88c.59-.36.65-.89.12-1.17l-8.59-4.7a2.26,2.26,0,0,0-2,.13l-8,4.88C445.14,335.72,445.09,336.25,445.61,336.53Z" transform="translate(-242.23 -115.06)"/><path class="cls-2" d="M434,330.18l8.6,4.7a2.27,2.27,0,0,0,2-.14l8-4.88c.59-.36.65-.88.12-1.17l-8.59-4.7a2.27,2.27,0,0,0-2,.14l-8,4.88C433.51,329.37,433.46,329.89,434,330.18Z" transform="translate(-242.23 -115.06)"/><path class="cls-2" d="M422.35,323.82l8.6,4.7a2.24,2.24,0,0,0,2-.13l8-4.88c.59-.36.65-.89.12-1.17l-8.59-4.7a2.24,2.24,0,0,0-2,.13l-8,4.88C421.88,323,421.83,323.54,422.35,323.82Z" transform="translate(-242.23 -115.06)"/><path class="cls-2" d="M410.72,317.47l8.6,4.69a2.24,2.24,0,0,0,2-.13l8-4.88c.6-.36.65-.88.12-1.17l-8.59-4.7a2.3,2.3,0,0,0-2,.13l-8,4.89C410.25,316.66,410.2,317.18,410.72,317.47Z" transform="translate(-242.23 -115.06)"/><path class="cls-2" d="M399.09,311.11l8.6,4.7a2.24,2.24,0,0,0,2-.13l8-4.88c.59-.36.64-.89.11-1.17l-8.59-4.7a2.24,2.24,0,0,0-2,.13l-8,4.88C398.62,310.3,398.57,310.82,399.09,311.11Z" transform="translate(-242.23 -115.06)"/><path class="cls-2" d="M387.47,304.76l8.59,4.69a2.24,2.24,0,0,0,2-.13l8-4.88c.59-.36.64-.88.11-1.17l-8.59-4.7a2.27,2.27,0,0,0-2,.13l-8,4.89C387,303.94,386.94,304.47,387.47,304.76Z" transform="translate(-242.23 -115.06)"/><path class="cls-2" d="M375.84,298.4l8.59,4.7a2.24,2.24,0,0,0,2-.13l8-4.88c.59-.36.64-.89.12-1.18l-8.6-4.69a2.24,2.24,0,0,0-2,.13l-8,4.88C375.36,297.59,375.31,298.11,375.84,298.4Z" transform="translate(-242.23 -115.06)"/><path class="cls-2" d="M364.21,292.05l8.59,4.69a2.24,2.24,0,0,0,2-.13l8-4.88c.59-.36.64-.88.12-1.17l-8.6-4.7a2.24,2.24,0,0,0-2,.13l-8,4.88C363.73,291.23,363.68,291.76,364.21,292.05Z" transform="translate(-242.23 -115.06)"/><path class="cls-2" d="M347.32,282.82l13.85,7.57a2.27,2.27,0,0,0,2-.13l8-4.89c.59-.36.64-.88.12-1.17l-13.85-7.57a2.27,2.27,0,0,0-2,.14l-8,4.88C346.85,282,346.8,282.53,347.32,282.82Z" transform="translate(-242.23 -115.06)"/><path class="cls-2" d="M354.82,288.18l-8.59-4.7a2.27,2.27,0,0,0-2,.14l-8,4.88c-.59.36-.64.88-.11,1.17l8.59,4.7a2.27,2.27,0,0,0,2-.14l8-4.88C355.3,289,355.35,288.47,354.82,288.18Z" transform="translate(-242.23 -115.06)"/><path class="cls-2" d="M366.45,294.54l-8.59-4.7a2.24,2.24,0,0,0-2,.13l-8,4.88c-.59.36-.64.89-.11,1.17l8.59,4.7a2.24,2.24,0,0,0,2-.13l8-4.88C366.93,295.35,367,294.82,366.45,294.54Z" transform="translate(-242.23 -115.06)"/><path class="cls-2" d="M378.08,300.89l-8.59-4.69a2.24,2.24,0,0,0-2,.13l-8,4.88c-.59.36-.64.88-.12,1.17l8.6,4.7a2.3,2.3,0,0,0,2-.13l8-4.89C378.56,301.7,378.61,301.18,378.08,300.89Z" transform="translate(-242.23 -115.06)"/><path class="cls-2" d="M389.71,307.25l-8.59-4.7a2.24,2.24,0,0,0-2,.13l-8,4.88c-.59.36-.64.89-.12,1.17l8.6,4.7a2.24,2.24,0,0,0,2-.13l8-4.88C390.18,308.06,390.24,307.54,389.71,307.25Z" transform="translate(-242.23 -115.06)"/><path class="cls-2" d="M401.34,313.6l-8.59-4.69a2.24,2.24,0,0,0-2,.13l-8,4.88c-.59.36-.64.88-.12,1.17l8.6,4.7a2.27,2.27,0,0,0,2-.13l8-4.88C401.81,314.42,401.87,313.89,401.34,313.6Z" transform="translate(-242.23 -115.06)"/><path class="cls-2" d="M413,320l-8.59-4.7a2.26,2.26,0,0,0-2,.13l-8,4.88c-.59.36-.64.89-.12,1.18l8.6,4.69a2.24,2.24,0,0,0,2-.13l8-4.88C413.44,320.77,413.5,320.25,413,320Z" transform="translate(-242.23 -115.06)"/><path class="cls-2" d="M424.6,326.31l-8.6-4.69a2.24,2.24,0,0,0-2,.13l-8,4.88c-.59.36-.64.88-.12,1.17l8.6,4.7a2.24,2.24,0,0,0,2-.13l8-4.88C425.07,327.13,425.12,326.6,424.6,326.31Z" transform="translate(-242.23 -115.06)"/><path class="cls-2" d="M436.23,332.67l-8.6-4.7a2.3,2.3,0,0,0-2,.13l-8,4.89c-.59.36-.65.88-.12,1.17l8.59,4.69a2.26,2.26,0,0,0,2-.13l8-4.88C436.7,333.48,436.75,333,436.23,332.67Z" transform="translate(-242.23 -115.06)"/><path class="cls-2" d="M447.86,339l-8.6-4.7a2.24,2.24,0,0,0-2,.13l-8,4.88c-.59.36-.65.89-.12,1.17l8.59,4.7a2.24,2.24,0,0,0,2-.13l8-4.88C448.33,339.84,448.38,339.31,447.86,339Z" transform="translate(-242.23 -115.06)"/><path class="cls-2" d="M459.49,345.38l-8.6-4.7a2.27,2.27,0,0,0-2,.14l-8,4.88c-.59.36-.65.88-.12,1.17l8.59,4.7a2.27,2.27,0,0,0,2-.14l8-4.88C460,346.19,460,345.67,459.49,345.38Z" transform="translate(-242.23 -115.06)"/><path class="cls-2" d="M471.12,351.74l-8.6-4.7a2.24,2.24,0,0,0-2,.13l-8,4.88c-.6.36-.65.89-.12,1.17l8.59,4.7a2.24,2.24,0,0,0,2-.13l8-4.88C471.59,352.55,471.64,352,471.12,351.74Z" transform="translate(-242.23 -115.06)"/><path class="cls-2" d="M482.75,358.09l-8.6-4.69a2.24,2.24,0,0,0-2,.13l-8,4.88c-.59.36-.64.88-.11,1.17l8.59,4.7a2.3,2.3,0,0,0,2-.13l8-4.89C483.22,358.9,483.27,358.38,482.75,358.09Z" transform="translate(-242.23 -115.06)"/><path class="cls-2" d="M494.37,364.45l-8.59-4.7a2.24,2.24,0,0,0-2,.13l-8,4.88c-.59.36-.64.89-.11,1.17l8.59,4.7a2.24,2.24,0,0,0,2-.13l8-4.88C494.85,365.26,494.9,364.74,494.37,364.45Z" transform="translate(-242.23 -115.06)"/><path class="cls-2" d="M511.26,373.68l-13.85-7.57a2.24,2.24,0,0,0-2,.13l-8,4.88c-.59.36-.64.88-.12,1.17l13.85,7.57a2.26,2.26,0,0,0,2-.13l8-4.88C511.73,374.49,511.78,374,511.26,373.68Z" transform="translate(-242.23 -115.06)"/><path class="cls-2" d="M352,299.62l-17-9.29a2.27,2.27,0,0,0-2,.14l-8,4.88c-.59.36-.65.88-.12,1.17l17,9.28a2.24,2.24,0,0,0,2-.13l8-4.88C352.44,300.43,352.5,299.91,352,299.62Z" transform="translate(-242.23 -115.06)"/><path class="cls-2" d="M499.91,380.47l-17-9.28a2.24,2.24,0,0,0-2,.13l-8,4.88c-.59.36-.64.89-.12,1.17l17,9.29a2.27,2.27,0,0,0,2-.13l8-4.89C500.39,381.29,500.44,380.76,499.91,380.47Z" transform="translate(-242.23 -115.06)"/><path class="cls-2" d="M363.6,306l-8.6-4.7a2.24,2.24,0,0,0-2,.13l-8,4.88c-.59.36-.64.88-.12,1.17l8.6,4.7a2.24,2.24,0,0,0,2-.13l8-4.88C364.07,306.79,364.13,306.26,363.6,306Z" transform="translate(-242.23 -115.06)"/><path class="cls-2" d="M375.23,312.33l-8.6-4.7a2.27,2.27,0,0,0-2,.13l-8,4.89c-.59.36-.65.88-.12,1.17l8.6,4.69a2.24,2.24,0,0,0,2-.13l8-4.88C375.7,313.14,375.75,312.62,375.23,312.33Z" transform="translate(-242.23 -115.06)"/><path class="cls-2" d="M386.86,318.69l-8.6-4.7a2.24,2.24,0,0,0-2,.13l-8,4.88c-.59.36-.65.89-.12,1.17l8.59,4.7a2.26,2.26,0,0,0,2-.13l8-4.88C387.33,319.5,387.38,319,386.86,318.69Z" transform="translate(-242.23 -115.06)"/><path class="cls-2" d="M398.49,325l-8.6-4.7a2.27,2.27,0,0,0-2,.14l-8,4.88c-.59.36-.65.88-.12,1.17l8.59,4.7a2.27,2.27,0,0,0,2-.14l8-4.88C399,325.85,399,325.33,398.49,325Z" transform="translate(-242.23 -115.06)"/><path class="cls-2" d="M410.12,331.4l-8.6-4.7a2.24,2.24,0,0,0-2,.13l-8,4.88c-.59.36-.65.89-.12,1.17l8.59,4.7a2.24,2.24,0,0,0,2-.13l8-4.88C410.59,332.21,410.64,331.68,410.12,331.4Z" transform="translate(-242.23 -115.06)"/><path class="cls-2" d="M421.75,337.75l-8.6-4.69a2.24,2.24,0,0,0-2,.13l-8,4.88c-.6.36-.65.88-.12,1.17l8.59,4.7a2.3,2.3,0,0,0,2-.13l8-4.89C422.22,338.56,422.27,338,421.75,337.75Z" transform="translate(-242.23 -115.06)"/><path class="cls-2" d="M433.37,344.11l-8.59-4.7a2.24,2.24,0,0,0-2,.13l-8,4.88c-.59.36-.64.89-.11,1.17l8.59,4.7a2.24,2.24,0,0,0,2-.13l8-4.88C433.85,344.92,433.9,344.4,433.37,344.11Z" transform="translate(-242.23 -115.06)"/><path class="cls-2" d="M445,350.46l-8.59-4.69a2.24,2.24,0,0,0-2,.13l-8,4.88c-.59.36-.64.88-.11,1.17l8.59,4.7a2.27,2.27,0,0,0,2-.13l8-4.88C445.48,351.28,445.53,350.75,445,350.46Z" transform="translate(-242.23 -115.06)"/><path class="cls-2" d="M456.63,356.82l-8.59-4.7a2.27,2.27,0,0,0-2,.13l-8,4.88c-.59.36-.64.89-.12,1.18l8.6,4.69a2.24,2.24,0,0,0,2-.13l8-4.88C457.11,357.63,457.16,357.11,456.63,356.82Z" transform="translate(-242.23 -115.06)"/><path class="cls-2" d="M468.26,363.17l-8.59-4.69a2.24,2.24,0,0,0-2,.13l-8,4.88c-.59.36-.64.88-.12,1.17l8.6,4.7a2.24,2.24,0,0,0,2-.13l8-4.88C468.74,364,468.79,363.46,468.26,363.17Z" transform="translate(-242.23 -115.06)"/><path class="cls-2" d="M479.89,369.53l-8.59-4.7a2.27,2.27,0,0,0-2,.13l-8,4.89c-.59.36-.64.88-.12,1.17l8.6,4.69a2.24,2.24,0,0,0,2-.13l8-4.88C480.36,370.34,480.42,369.82,479.89,369.53Z" transform="translate(-242.23 -115.06)"/><path class="cls-2" d="M346.5,309.62l-22.77-12.44a2.27,2.27,0,0,0-2,.14l-8,4.88c-.59.36-.65.88-.12,1.17l22.76,12.44a2.24,2.24,0,0,0,2-.13l8-4.88C347,310.44,347,309.91,346.5,309.62Z" transform="translate(-242.23 -115.06)"/><path class="cls-2" d="M358.13,316l-8.6-4.7a2.27,2.27,0,0,0-2,.13l-8,4.89c-.59.36-.64.88-.11,1.17l8.59,4.69a2.24,2.24,0,0,0,2-.13l8-4.88C358.6,316.79,358.65,316.27,358.13,316Z" transform="translate(-242.23 -115.06)"/><path class="cls-2" d="M369.75,322.34l-8.59-4.7a2.24,2.24,0,0,0-2,.13l-8,4.88c-.59.36-.64.89-.11,1.17l8.59,4.7a2.24,2.24,0,0,0,2-.13l8-4.88C370.23,323.15,370.28,322.62,369.75,322.34Z" transform="translate(-242.23 -115.06)"/><path class="cls-2" d="M381.38,328.69l-8.59-4.7a2.27,2.27,0,0,0-2,.14l-8,4.88c-.59.36-.64.88-.12,1.17l8.6,4.7a2.27,2.27,0,0,0,2-.14l8-4.88C381.86,329.5,381.91,329,381.38,328.69Z" transform="translate(-242.23 -115.06)"/><path class="cls-2" d="M393,335.05l-8.59-4.7a2.24,2.24,0,0,0-2,.13l-8,4.88c-.59.36-.64.89-.12,1.17l8.6,4.7a2.24,2.24,0,0,0,2-.13l8-4.88C393.49,335.86,393.54,335.33,393,335.05Z" transform="translate(-242.23 -115.06)"/><path class="cls-2" d="M404.64,341.4l-8.59-4.69a2.24,2.24,0,0,0-2,.13l-8,4.88c-.59.36-.64.88-.12,1.17l8.6,4.7a2.3,2.3,0,0,0,2-.13l8-4.89C405.11,342.21,405.17,341.69,404.64,341.4Z" transform="translate(-242.23 -115.06)"/><path class="cls-2" d="M416.27,347.76l-8.59-4.7a2.24,2.24,0,0,0-2,.13l-8,4.88c-.59.36-.64.89-.12,1.17l8.6,4.7a2.24,2.24,0,0,0,2-.13l8-4.88C416.74,348.57,416.8,348.05,416.27,347.76Z" transform="translate(-242.23 -115.06)"/><path class="cls-2" d="M427.9,354.11l-8.59-4.69a2.26,2.26,0,0,0-2,.13l-8,4.88c-.59.36-.64.88-.12,1.17l8.6,4.7a2.27,2.27,0,0,0,2-.13l8-4.89C428.37,354.93,428.43,354.4,427.9,354.11Z" transform="translate(-242.23 -115.06)"/><path class="cls-2" d="M439.53,360.47l-8.6-4.7a2.27,2.27,0,0,0-2,.13l-8,4.88c-.59.36-.64.89-.12,1.18l8.6,4.69a2.24,2.24,0,0,0,2-.13l8-4.88C440,361.28,440.05,360.76,439.53,360.47Z" transform="translate(-242.23 -115.06)"/><path class="cls-2" d="M451.16,366.83l-8.6-4.7a2.24,2.24,0,0,0-2,.13l-8,4.88c-.59.36-.65.88-.12,1.17L441,373a2.26,2.26,0,0,0,2-.13l8-4.88C451.63,367.64,451.68,367.11,451.16,366.83Z" transform="translate(-242.23 -115.06)"/><path class="cls-2" d="M462.79,373.18l-8.6-4.7a2.27,2.27,0,0,0-2,.13l-8,4.89c-.59.36-.65.88-.12,1.17l8.59,4.69a2.24,2.24,0,0,0,2-.13l8-4.88C463.26,374,463.31,373.47,462.79,373.18Z" transform="translate(-242.23 -115.06)"/><path class="cls-2" d="M488.67,387.32l-22.85-12.48a2.24,2.24,0,0,0-2,.13l-8,4.88c-.59.36-.65.89-.12,1.17l22.84,12.49a2.24,2.24,0,0,0,2-.13l8-4.88C489.14,388.14,489.19,387.61,488.67,387.32Z" transform="translate(-242.23 -115.06)"/><path class="cls-2" d="M428.28,367.32,373.17,337.2a2.24,2.24,0,0,0-2,.13l-8,4.88c-.59.36-.64.89-.11,1.17l55.11,30.12a2.24,2.24,0,0,0,2-.13l8-4.88C428.75,368.13,428.81,367.61,428.28,367.32Z" transform="translate(-242.23 -115.06)"/><path class="cls-2" d="M356,327.8l-8.6-4.7a2.24,2.24,0,0,0-2,.13l-8,4.88c-.59.36-.65.89-.12,1.18l8.59,4.69a2.24,2.24,0,0,0,2-.13l8-4.88C356.44,328.61,356.49,328.09,356,327.8Z" transform="translate(-242.23 -115.06)"/><path class="cls-2" d="M370.14,335.54,359,329.46a2.24,2.24,0,0,0-2,.13l-8,4.88c-.59.36-.65.88-.12,1.17L360,341.73a2.27,2.27,0,0,0,2-.14l8-4.88C370.61,336.35,370.66,335.83,370.14,335.54Z" transform="translate(-242.23 -115.06)"/><path class="cls-2" d="M445.48,376.72l8.6,4.7c.52.29.47.81-.12,1.17l-8,4.88a2.24,2.24,0,0,1-2,.13l-8.59-4.7c-.53-.28-.47-.81.12-1.17l8-4.88A2.24,2.24,0,0,1,445.48,376.72Z" transform="translate(-242.23 -115.06)"/><path class="cls-2" d="M431.32,369l11.13,6.08c.52.29.47.81-.12,1.17l-8,4.89a2.32,2.32,0,0,1-2,.13l-11.13-6.09c-.52-.29-.47-.81.12-1.17l8-4.88A2.26,2.26,0,0,1,431.32,369Z" transform="translate(-242.23 -115.06)"/><path class="cls-2" d="M321.08,308.73,312.49,304a2.24,2.24,0,0,0-2,.13l-8,4.88c-.59.36-.64.88-.12,1.17l8.6,4.7a2.27,2.27,0,0,0,2-.14l8-4.88C321.55,309.54,321.61,309,321.08,308.73Z" transform="translate(-242.23 -115.06)"/><path class="cls-2" d="M332.71,315.09l-8.6-4.7a2.24,2.24,0,0,0-2,.13l-8,4.88c-.59.36-.64.89-.12,1.17l8.6,4.7a2.24,2.24,0,0,0,2-.13l8-4.88C333.18,315.9,333.24,315.38,332.71,315.09Z" transform="translate(-242.23 -115.06)"/><path class="cls-2" d="M344.34,321.44l-8.6-4.69a2.24,2.24,0,0,0-2,.13l-8,4.88c-.59.36-.65.88-.12,1.17l8.6,4.7a2.27,2.27,0,0,0,2-.13l8-4.89C344.81,322.26,344.86,321.73,344.34,321.44Z" transform="translate(-242.23 -115.06)"/><path class="cls-2" d="M477.42,394.17l-20.31-11.09a2.24,2.24,0,0,0-2,.13l-8,4.88c-.59.36-.65.88-.12,1.17l20.31,11.1a2.24,2.24,0,0,0,2-.13l8-4.88C477.89,395,477.94,394.46,477.42,394.17Z" transform="translate(-242.23 -115.06)"/><path class="cls-2" d="M515,361.46l8.59,4.7a2.24,2.24,0,0,0,2-.13l4-2.43c.59-.36.64-.88.11-1.17l-8.59-4.7a2.24,2.24,0,0,0-2,.13l-4,2.43C514.53,360.65,514.48,361.17,515,361.46Z" transform="translate(-242.23 -115.06)"/><path class="cls-2" d="M503.38,355.11,512,359.8a2.24,2.24,0,0,0,2-.13l4-2.43c.59-.35.64-.88.11-1.17l-8.59-4.69a2.24,2.24,0,0,0-2,.13l-4,2.43C502.9,354.29,502.85,354.82,503.38,355.11Z" transform="translate(-242.23 -115.06)"/><path class="cls-2" d="M491.75,348.75l8.59,4.7a2.27,2.27,0,0,0,2-.13l4-2.43c.59-.36.64-.88.12-1.17l-8.6-4.7a2.24,2.24,0,0,0-2,.13l-4,2.43C491.27,347.94,491.22,348.46,491.75,348.75Z" transform="translate(-242.23 -115.06)"/><path class="cls-2" d="M480.12,342.39l8.59,4.7a2.24,2.24,0,0,0,2-.13l4-2.43c.59-.36.64-.88.12-1.17l-8.6-4.69a2.24,2.24,0,0,0-2,.13l-4,2.42C479.65,341.58,479.59,342.11,480.12,342.39Z" transform="translate(-242.23 -115.06)"/><path class="cls-2" d="M468.49,336l8.59,4.7a2.27,2.27,0,0,0,2-.13l4-2.43c.59-.36.64-.89.12-1.17l-8.6-4.7a2.24,2.24,0,0,0-2,.13l-4,2.43C468,335.23,468,335.75,468.49,336Z" transform="translate(-242.23 -115.06)"/><path class="cls-2" d="M456.86,329.68l8.59,4.7a2.26,2.26,0,0,0,2-.13l4-2.43c.59-.36.64-.88.12-1.17L463,326a2.27,2.27,0,0,0-2,.14l-4,2.42C456.39,328.87,456.33,329.4,456.86,329.68Z" transform="translate(-242.23 -115.06)"/><path class="cls-2" d="M445.23,323.33l8.6,4.7a2.27,2.27,0,0,0,2-.14l4-2.42c.59-.36.64-.89.12-1.17l-8.6-4.7a2.24,2.24,0,0,0-2,.13l-4,2.43C444.76,322.52,444.71,323,445.23,323.33Z" transform="translate(-242.23 -115.06)"/><path class="cls-2" d="M433.6,317l8.6,4.7a2.24,2.24,0,0,0,2-.13l4-2.43c.59-.36.65-.88.12-1.17l-8.59-4.7a2.29,2.29,0,0,0-2,.13l-4,2.43C433.13,316.16,433.08,316.69,433.6,317Z" transform="translate(-242.23 -115.06)"/><path class="cls-2" d="M422,310.62l8.6,4.69a2.24,2.24,0,0,0,2-.13l4-2.42c.59-.36.65-.89.12-1.18l-8.59-4.69a2.24,2.24,0,0,0-2,.13l-4,2.43C421.5,309.81,421.45,310.33,422,310.62Z" transform="translate(-242.23 -115.06)"/><path class="cls-2" d="M410.34,304.26l8.6,4.7a2.24,2.24,0,0,0,2-.13l4-2.43c.59-.36.65-.88.12-1.17l-8.59-4.7a2.27,2.27,0,0,0-2,.13l-4,2.43C409.87,303.45,409.82,304,410.34,304.26Z" transform="translate(-242.23 -115.06)"/><path class="cls-2" d="M398.71,297.91l8.6,4.69a2.24,2.24,0,0,0,2-.13l4-2.43c.6-.35.65-.88.12-1.17l-8.59-4.69a2.24,2.24,0,0,0-2,.13l-4,2.42C398.24,297.09,398.19,297.62,398.71,297.91Z" transform="translate(-242.23 -115.06)"/><path class="cls-2" d="M387.08,291.55l8.6,4.7a2.27,2.27,0,0,0,2-.13l4-2.43c.59-.36.64-.88.11-1.17l-8.59-4.7a2.24,2.24,0,0,0-2,.13l-4,2.43C386.61,290.74,386.56,291.26,387.08,291.55Z" transform="translate(-242.23 -115.06)"/><path class="cls-2" d="M375.46,285.19l8.59,4.7a2.24,2.24,0,0,0,2-.13l4-2.43c.59-.36.64-.88.11-1.17l-8.59-4.69a2.24,2.24,0,0,0-2,.13l-4,2.42C375,284.38,374.93,284.91,375.46,285.19Z" transform="translate(-242.23 -115.06)"/><path class="cls-2" d="M358.57,276l13.85,7.57a2.27,2.27,0,0,0,2-.13l4-2.43c.59-.36.64-.89.12-1.17l-13.85-7.57a2.24,2.24,0,0,0-2,.13l-4,2.43C358.1,275.16,358.05,275.68,358.57,276Z" transform="translate(-242.23 -115.06)"/><path class="cls-16" d="M542.05,370.79c.64,1-38.46,25.76-49.71,32.83s-70.29,40.2-70.92,39.19S478.79,407,490.05,400,541.42,369.78,542.05,370.79Z" transform="translate(-242.23 -115.06)"/><path class="cls-17" d="M266.08,356.55c-.59,1,39.55,24.06,51.1,30.63s72,37.09,72.56,36.06-58.88-33.23-70.43-39.8S266.66,355.51,266.08,356.55Z" transform="translate(-242.23 -115.06)"/><polygon class="cls-18" points="257.97 190.62 258 196.43 138.09 128.44 138.06 122.63 257.97 190.62"/><path class="cls-19" d="M488.05,228.9l4.74,2.69c0,5.69-4,8-8.94,5.2l-.58-.35a20.09,20.09,0,0,1-8.46-14.4c-.36-6.18,3.76-8.78,8.93-5.86l0,5.44c-2.4-1.36-4.32-.18-4.22,2.64a9.48,9.48,0,0,0,4.11,7l.16.1C486.17,232.69,488.06,231.59,488.05,228.9Z" transform="translate(-242.23 -115.06)"/><path class="cls-20" d="M442.75,186.78l57.63,32.68.35,70.55L443.1,257.33Zm40.52,49.66.58.35c5,2.82,9,.49,8.94-5.2s-4.08-12.59-9.05-15.41c-5.17-2.92-9.29-.32-8.93,5.86a20.09,20.09,0,0,0,8.46,14.4m10.92,41.19-.13-26.11-8.42-4.78.13,26.11,8.42,4.78m-11.95-6.78-.11-20.72-8.42-4.77.1,20.71,8.43,4.78m-12.5-7.09-.06-10.58-8.42-4.77.05,10.58,8.43,4.77M457,256.52l0-5.62-8.42-4.77,0,5.61,8.43,4.78m-8.9-60.25v1.39l17.85,10.12v-1.39l-17.85-10.12m0,4.7v1.39l5.49,3.11v-1.39L448.08,201" transform="translate(-242.23 -115.06)"/><polygon class="cls-19" points="239.91 135.07 231.48 130.29 231.59 151.01 240.01 155.79 239.91 135.07"/><path class="cls-21" d="M483.76,221.62a9.29,9.29,0,0,1,4.29,7.28c0,2.69-1.88,3.79-4.24,2.45l-.16-.1a9.48,9.48,0,0,1-4.11-7C479.44,221.44,481.36,220.26,483.76,221.62Z" transform="translate(-242.23 -115.06)"/><path class="cls-22" d="M483.74,216.18c5,2.82,9,9.72,9.05,15.41l-4.74-2.69a9.29,9.29,0,0,0-4.29-7.28Z" transform="translate(-242.23 -115.06)"/><polygon class="cls-23" points="156.52 70.72 156.61 90.22 137.84 79.58 137.75 60.08 156.52 70.72"/><polygon class="cls-19" points="192.62 69.04 193.43 70.53 189.41 72.38 186.2 70.32 181.86 73.32 177.96 69 174.1 70.77 169.44 65.11 165.82 59.62 156.36 61.64 153.01 57.12 147.9 56.08 145.96 53.01 140.7 54.34 139.98 52.79 146.04 51.28 148.18 54.68 153.2 55.69 156.35 59.95 165.89 57.92 170.12 64.37 173.92 68.98 177.74 67.24 181.56 71.46 185.69 68.61 188.97 70.7 192.62 69.04"/><polygon class="cls-24" points="179.03 83.48 179.13 102.99 160.36 92.34 160.26 72.84 179.03 83.48"/><polygon class="cls-25" points="156.64 96.14 156.74 115.64 137.97 105 137.87 85.5 156.64 96.14"/><path class="cls-26" d="M379.85,151.12l57.63,32.67.09,19.49L380,170.61Zm51.79,36.32,4-1.85-.81-1.49-3.66,1.67-3.27-2.1-4.13,2.85L420,182.3,416.15,184l-3.8-4.61L408.12,173l-9.54,2-3.16-4.26-5-1-2.13-3.4-6.06,1.51.72,1.55,5.26-1.33,1.94,3.07,5.1,1,3.36,4.52,9.46-2,3.61,5.49,4.66,5.66,3.86-1.77,3.9,4.32,4.35-3,3.21,2.06" transform="translate(-242.23 -115.06)"/><polygon class="cls-27" points="285.36 206.15 285.39 211.96 260.64 197.92 260.61 192.12 285.36 206.15"/><polygon class="cls-28" points="179.16 108.9 179.26 128.41 160.49 117.77 160.39 98.26 179.16 108.9"/><polygon class="cls-19" points="286.23 136.68 286.24 138.49 275.86 132.61 275.86 130.79 286.23 136.68"/><polygon class="cls-19" points="286.25 141.19 286.26 143.02 261.74 129.12 261.73 127.29 286.25 141.19"/><polygon class="cls-19" points="286.21 131.93 286.22 133.74 266.33 122.47 266.32 120.65 286.21 131.93"/><polygon class="cls-29" points="286.15 120.27 286.16 123.05 261.82 109.25 261.8 106.47 286.15 120.27"/><polygon class="cls-19" points="286.18 127.23 286.19 129.06 270.57 120.2 270.56 118.37 286.18 127.23"/><polygon class="cls-19" points="214.71 135.84 214.73 141.46 206.31 136.68 206.28 131.07 214.71 135.84"/><polygon class="cls-19" points="227.46 138.12 227.51 148.7 219.08 143.93 219.03 133.35 227.46 138.12"/><polygon class="cls-19" points="251.84 136.46 251.97 162.57 243.54 157.79 243.41 131.68 251.84 136.46"/><polygon class="cls-19" points="223.68 91.33 223.69 92.72 205.84 82.6 205.83 81.21 223.68 91.33"/><polygon class="cls-19" points="211.35 89.02 211.35 90.41 205.86 87.3 205.86 85.91 211.35 89.02"/><path class="cls-30" d="M443.17,221.21a4,4,0,0,1,1.8,3.12c0,1.15-.81,1.61-1.81,1a4,4,0,0,1-1.81-3.12C441.36,221.09,442.17,220.63,443.17,221.21Z" transform="translate(-242.23 -115.06)"/><path class="cls-31" d="M346.09,160.26l111.29,64.25,0,14.54-23.89-13.8a14.71,14.71,0,0,1-5-5.17l-3.32-5.52a13.54,13.54,0,0,0-4.6-4.77l-74.46-43ZM452,230.47c1,.58,1.81.12,1.81-1a4,4,0,0,0-1.8-3.12c-1-.58-1.82-.12-1.82,1a4,4,0,0,0,1.81,3.12m-17.71-10.22c1,.58,1.81.12,1.82-1a4,4,0,0,0-1.81-3.12c-1-.58-1.81-.12-1.81,1a3.92,3.92,0,0,0,1.8,3.12m8.85,5.11c1,.58,1.81.12,1.81-1a4,4,0,0,0-1.8-3.12c-1-.58-1.81-.12-1.82,1a4,4,0,0,0,1.81,3.12" transform="translate(-242.23 -115.06)"/><path class="cls-32" d="M452,226.32a4,4,0,0,1,1.8,3.12c0,1.15-.82,1.61-1.81,1a4,4,0,0,1-1.81-3.12C450.21,226.2,451,225.74,452,226.32Z" transform="translate(-242.23 -115.06)"/><g class="cls-1"><path class="cls-33" d="M434.32,216.1a4,4,0,0,1,1.81,3.12c0,1.15-.82,1.61-1.82,1a3.92,3.92,0,0,1-1.8-3.12C432.51,216,433.32,215.52,434.32,216.1Z" transform="translate(-242.23 -115.06)"/><g class="cls-34"><path class="cls-35" d="M346.09,160.26l0,6.54,74.46,43a13.54,13.54,0,0,1,4.6,4.77l3.32,5.52a14.71,14.71,0,0,0,5,5.17l23.89,13.8-.17,58.45L345.89,233.25Z" transform="translate(-242.23 -115.06)"/></g></g><g class="cls-36"><polygon class="cls-19" points="164.55 122.29 164.54 125.19 114.02 96.03 114.03 93.12 164.55 122.29"/><g class="cls-1"><polygon class="cls-19" points="131.49 89.14 131.48 92.04 114.06 81.98 114.07 79.08 131.49 89.14"/><polygon class="cls-19" points="154.8 109.47 154.79 112.37 114.04 88.84 114.05 85.94 154.8 109.47"/><polygon class="cls-19" points="182.8 111.8 182.79 114.71 114.08 75.04 114.09 72.13 182.8 111.8"/></g></g><g class="cls-36"><path class="cls-19" d="M503.16,263.94a6,6,0,0,0-2.59-.85c-9.8-.77-8.54,16.85-18.33,14.19-.79-.37-15.66-7.54-21.39-2l121.79,70.32c-.25-.52-5.13-10.38-13.57-15.26-.56-.32-1.14-.62-1.73-.89-.21-.1-.43-.21-.63-.33-4.28-2.47-6.5-9.12-8.54-15.67s-3.87-13-7.36-15a4.83,4.83,0,0,0-.69-.33c-7-2.71-9.37,13-18.46,7.72a17.61,17.61,0,0,1-3.44-2.72C517.27,292.32,511.47,268.74,503.16,263.94Z" transform="translate(-242.23 -115.06)"/></g><path class="cls-37" d="M532.24,414.45c9.1,5.25,9.14,13.77.11,19s-23.75,5.25-32.84,0-9.15-13.77-.11-19S523.14,409.19,532.24,414.45Zm-8.18,16.68,2.54-1.47-5.83-7.46-2.42,1.41,4.17,5.16-8.91-2.41-2.45,1.42,12.9,3.35m-7.84-8.76,2.42-1.4-12.89-3.35-2.54,1.48,5.82,7.45,2.44-1.42L507.29,420l8.93,2.39" transform="translate(-242.23 -115.06)"/><polygon class="cls-19" points="276.41 305.91 273.99 307.31 265.06 304.92 269.25 310.07 266.8 311.49 260.99 304.04 263.52 302.56 276.41 305.91"/><polygon class="cls-19" points="278.54 307.14 284.37 314.6 281.83 316.07 268.94 312.72 271.38 311.3 280.29 313.71 276.13 308.55 278.54 307.14"/><g class="cls-1"><path class="cls-38" d="M520,326.51a4,4,0,0,1,1.8,3.12c0,1.15-.81,1.61-1.81,1a4,4,0,0,1-1.81-3.12C518.16,326.39,519,325.93,520,326.51Z" transform="translate(-242.23 -115.06)"/><g class="cls-34"><path class="cls-39" d="M422.89,265.57l0,6.54,74.45,43a13.65,13.65,0,0,1,4.61,4.77l3.32,5.52a14.75,14.75,0,0,0,5,5.18l23.88,13.79,0,12.43c0,3.84-2.72,5.38-6.06,3.46L428.83,303a13.29,13.29,0,0,1-6-10.43Z" transform="translate(-242.23 -115.06)"/></g><path class="cls-40" d="M528.83,331.62a4,4,0,0,1,1.8,3.12c0,1.16-.82,1.61-1.82,1a4,4,0,0,1-1.8-3.12C527,331.5,527.82,331,528.83,331.62Z" transform="translate(-242.23 -115.06)"/><path class="cls-41" d="M422.89,265.57l111.28,64.25,0,14.53-23.88-13.79a14.75,14.75,0,0,1-5-5.18l-3.32-5.52a13.65,13.65,0,0,0-4.61-4.77l-74.45-43Zm105.92,70.21c1,.57,1.81.12,1.82-1a4,4,0,0,0-1.8-3.12c-1-.58-1.82-.12-1.82,1a4,4,0,0,0,1.8,3.12M511.1,325.55c1,.58,1.82.13,1.82-1a4,4,0,0,0-1.8-3.13c-1-.57-1.81-.11-1.82,1a4,4,0,0,0,1.8,3.12m8.86,5.11c1,.58,1.81.12,1.81-1a4,4,0,0,0-1.8-3.12c-1-.58-1.81-.12-1.82,1a4,4,0,0,0,1.81,3.12" transform="translate(-242.23 -115.06)"/><path class="cls-42" d="M511.12,321.39a4,4,0,0,1,1.8,3.13c0,1.16-.81,1.61-1.82,1a4,4,0,0,1-1.8-3.12C509.31,321.28,510.11,320.82,511.12,321.39Z" transform="translate(-242.23 -115.06)"/></g><g class="cls-43"><path class="cls-19" d="M506.19,331.71a4.13,4.13,0,0,1,1.89,3.27c0,1.21-.85,1.69-1.9,1.09l-78-45a4.19,4.19,0,0,1-1.89-3.27c0-1.21.86-1.69,1.91-1.09Z" transform="translate(-242.23 -115.06)"/></g><path class="cls-44" d="M517.84,348.19a4.53,4.53,0,1,1-6.07,2.06A4.53,4.53,0,0,1,517.84,348.19Z" transform="translate(-242.23 -115.06)"/><path class="cls-45" d="M475.55,327.89c38.14,22,70.85,41.59,73.06,43.67s-26.93-14.11-65.08-36.15-70.86-41.59-73.06-43.67S437.4,305.85,475.55,327.89Z" transform="translate(-242.23 -115.06)"/><path class="cls-46" d="M454.5,313.17a3.5,3.5,0,1,1-4.68,1.59A3.5,3.5,0,0,1,454.5,313.17Z" transform="translate(-242.23 -115.06)"/><path class="cls-47" d="M466.3,316.55a6.49,6.49,0,1,1-8.69,2.95A6.48,6.48,0,0,1,466.3,316.55Z" transform="translate(-242.23 -115.06)"/><g class="cls-48"><path class="cls-49" d="M505.3,359.2a2,2,0,0,1-1-.22l-8.6-4.7a.88.88,0,0,1-.51-.75,1.1,1.1,0,0,1,.62-.93l8-4.88a2.5,2.5,0,0,1,2.31-.14l8.6,4.7a.86.86,0,0,1,.51.75,1.11,1.11,0,0,1-.62.93l-8,4.88A2.62,2.62,0,0,1,505.3,359.2ZM496,353.76l8.59,4.7a2,2,0,0,0,1.73-.12l8-4.89c.26-.15.34-.31.34-.41s-.13-.2-.21-.24l-8.59-4.7a1.94,1.94,0,0,0-1.73.13l-8,4.88c-.25.15-.34.31-.34.41s.13.2.21.24Z" transform="translate(-242.23 -115.06)"/><path class="cls-49" d="M493.67,352.84a2.13,2.13,0,0,1-1-.21l-8.59-4.7a.9.9,0,0,1-.52-.76,1.13,1.13,0,0,1,.62-.93l8-4.88a2.57,2.57,0,0,1,2.31-.14l8.6,4.7a.9.9,0,0,1,.52.75,1.14,1.14,0,0,1-.63.94l-8,4.88A2.72,2.72,0,0,1,493.67,352.84Zm-9.28-5.43,8.6,4.69a2,2,0,0,0,1.72-.12l8-4.88c.26-.16.34-.32.34-.41s-.13-.21-.21-.25l-8.59-4.69a1.92,1.92,0,0,0-1.72.12l-8,4.88c-.25.15-.34.31-.34.41a.36.36,0,0,0,.21.25Z" transform="translate(-242.23 -115.06)"/><path class="cls-49" d="M482,346.49a2,2,0,0,1-1-.22l-8.59-4.7a.87.87,0,0,1-.52-.75,1.1,1.1,0,0,1,.62-.93l8-4.88a2.5,2.5,0,0,1,2.31-.14l8.6,4.69a.92.92,0,0,1,.52.76,1.14,1.14,0,0,1-.63.93l-8,4.88A2.62,2.62,0,0,1,482,346.49Zm-9.28-5.44,8.6,4.7a1.92,1.92,0,0,0,1.72-.13l8-4.88c.25-.15.33-.31.33-.41s-.13-.2-.21-.24l-8.59-4.7a2,2,0,0,0-1.72.12l-8,4.89c-.25.15-.34.31-.34.41s.13.2.21.24Z" transform="translate(-242.23 -115.06)"/><path class="cls-49" d="M470.41,340.13a2.13,2.13,0,0,1-1-.21l-8.59-4.7a.9.9,0,0,1-.52-.76,1.13,1.13,0,0,1,.62-.93l8-4.88a2.52,2.52,0,0,1,2.32-.14l8.59,4.7a.88.88,0,0,1,.52.75,1.13,1.13,0,0,1-.62.94l-8,4.88A2.72,2.72,0,0,1,470.41,340.13Zm-9.28-5.43,8.6,4.69a2,2,0,0,0,1.72-.12l8-4.88c.25-.16.34-.32.33-.41s-.13-.21-.2-.25L471,329a2,2,0,0,0-1.72.13l-8,4.88c-.25.15-.34.31-.33.41s.13.2.2.25Z" transform="translate(-242.23 -115.06)"/><path class="cls-49" d="M458.78,333.78a2,2,0,0,1-1-.22l-8.59-4.7a.88.88,0,0,1-.52-.75,1.1,1.1,0,0,1,.62-.93l8-4.88a2.52,2.52,0,0,1,2.32-.14l8.59,4.69a.9.9,0,0,1,.52.76,1.13,1.13,0,0,1-.62.93l-8,4.88A2.62,2.62,0,0,1,458.78,333.78Zm-9.28-5.44,8.6,4.7a1.92,1.92,0,0,0,1.72-.13l8-4.88c.25-.15.34-.31.33-.41s-.13-.2-.2-.25l-8.6-4.69a2,2,0,0,0-1.72.12l-8,4.88c-.25.16-.34.32-.33.41s.13.21.2.25Z" transform="translate(-242.23 -115.06)"/><path class="cls-49" d="M447.16,327.42a2.05,2.05,0,0,1-1-.22l-8.59-4.69a.9.9,0,0,1-.52-.76,1.15,1.15,0,0,1,.62-.93l8-4.88a2.52,2.52,0,0,1,2.32-.14l8.59,4.7a.88.88,0,0,1,.52.75,1.1,1.1,0,0,1-.62.93l-8,4.89A2.68,2.68,0,0,1,447.16,327.42ZM437.87,322l8.6,4.69a2,2,0,0,0,1.72-.12l8-4.88c.25-.16.34-.32.33-.41s-.13-.21-.2-.25l-8.6-4.7a2,2,0,0,0-1.72.13l-8,4.88c-.25.15-.34.31-.33.41s.13.2.2.25Z" transform="translate(-242.23 -115.06)"/><path class="cls-49" d="M435.52,321.07a2,2,0,0,1-1-.22l-8.6-4.7h0a.88.88,0,0,1-.52-.75,1.15,1.15,0,0,1,.62-.94l8-4.88a2.59,2.59,0,0,1,2.32-.14l8.59,4.7a.9.9,0,0,1,.52.76,1.13,1.13,0,0,1-.62.93l-8,4.88A2.6,2.6,0,0,1,435.52,321.07Zm-.09-11.25a2,2,0,0,0-1,.27l-8,4.88c-.25.16-.33.32-.33.41s.13.21.2.25h0l8.6,4.7a2,2,0,0,0,1.72-.13l8-4.88c.25-.15.34-.31.34-.41s-.14-.2-.21-.25l-8.6-4.69A1.42,1.42,0,0,0,435.43,309.82Z" transform="translate(-242.23 -115.06)"/><path class="cls-49" d="M423.9,314.71a2,2,0,0,1-1-.22l-8.6-4.69h0a.9.9,0,0,1-.52-.76,1.14,1.14,0,0,1,.63-.93l8-4.88a2.52,2.52,0,0,1,2.32-.14l8.59,4.7a.88.88,0,0,1,.52.75,1.1,1.1,0,0,1-.62.93l-8,4.88A2.59,2.59,0,0,1,423.9,314.71Zm-.1-11.25a2,2,0,0,0-1,.28l-8,4.88c-.25.15-.33.31-.33.41s.13.2.2.24h0l8.59,4.7a2,2,0,0,0,1.72-.12l8-4.88c.25-.16.34-.32.34-.42s-.14-.2-.21-.24l-8.6-4.7A1.42,1.42,0,0,0,423.8,303.46Z" transform="translate(-242.23 -115.06)"/><path class="cls-49" d="M412.27,308.36a2.1,2.1,0,0,1-1-.22l-8.6-4.7a.92.92,0,0,1-.52-.75,1.14,1.14,0,0,1,.63-.94l8-4.88a2.59,2.59,0,0,1,2.32-.14l8.6,4.7a.91.91,0,0,1,.51.76,1.13,1.13,0,0,1-.62.93l-8,4.88A2.69,2.69,0,0,1,412.27,308.36Zm-.1-11.25a2,2,0,0,0-1,.27l-8,4.88c-.26.16-.34.32-.34.41s.13.21.21.25h0l8.59,4.7a2,2,0,0,0,1.72-.13l8-4.88c.25-.15.34-.31.34-.41a.36.36,0,0,0-.21-.25l-8.6-4.69A1.42,1.42,0,0,0,412.17,297.11Z" transform="translate(-242.23 -115.06)"/><path class="cls-49" d="M400.64,302a2,2,0,0,1-1-.22l-8.6-4.7a.86.86,0,0,1-.51-.75,1.08,1.08,0,0,1,.62-.93l8-4.88a2.52,2.52,0,0,1,2.32-.14l8.6,4.7a.88.88,0,0,1,.51.75,1.1,1.1,0,0,1-.62.93l-8,4.88A2.56,2.56,0,0,1,400.64,302Zm-.1-11.25a2.15,2.15,0,0,0-1,.27l-8,4.89c-.26.15-.34.31-.34.41s.13.2.21.24h0l8.59,4.7a1.94,1.94,0,0,0,1.73-.13l8-4.88c.25-.15.34-.31.34-.41s-.13-.2-.21-.24l-8.59-4.7A1.49,1.49,0,0,0,400.54,290.75Z" transform="translate(-242.23 -115.06)"/><path class="cls-49" d="M389,295.64a2,2,0,0,1-1-.22l-8.6-4.69a.88.88,0,0,1-.51-.75,1.13,1.13,0,0,1,.62-.94l8-4.88a2.59,2.59,0,0,1,2.32-.14l8.6,4.7a.88.88,0,0,1,.51.75,1.13,1.13,0,0,1-.62.94l-8,4.88A2.72,2.72,0,0,1,389,295.64Zm-9.28-5.43,8.59,4.69a1.94,1.94,0,0,0,1.73-.12l8-4.88c.25-.16.34-.32.34-.41s-.13-.21-.21-.25l-8.59-4.69a2,2,0,0,0-1.73.12l-8,4.88c-.25.15-.34.31-.34.41s.13.2.21.25Z" transform="translate(-242.23 -115.06)"/><path class="cls-49" d="M377.38,289.29a2,2,0,0,1-1-.22l-8.6-4.7a.87.87,0,0,1-.51-.75,1.1,1.1,0,0,1,.62-.93l8-4.88a2.53,2.53,0,0,1,2.32-.14l8.6,4.69a.89.89,0,0,1,.51.76,1.11,1.11,0,0,1-.62.93l-8,4.88A2.62,2.62,0,0,1,377.38,289.29Zm-9.28-5.44,8.59,4.7a1.94,1.94,0,0,0,1.73-.13l8-4.88c.25-.15.34-.31.34-.41s-.13-.2-.21-.24l-8.59-4.7a2,2,0,0,0-1.73.12l-8,4.89c-.25.15-.34.31-.34.41s.13.2.21.24Z" transform="translate(-242.23 -115.06)"/><path class="cls-49" d="M365.75,282.93a2.13,2.13,0,0,1-1-.21l-8.6-4.7a.89.89,0,0,1-.51-.76,1.13,1.13,0,0,1,.62-.93l8-4.88a2.5,2.5,0,0,1,2.31-.14l8.6,4.7a.87.87,0,0,1,.51.75,1.11,1.11,0,0,1-.62.94l-8,4.88A2.72,2.72,0,0,1,365.75,282.93Zm-9.28-5.43,8.59,4.69a2,2,0,0,0,1.73-.12l8-4.88c.26-.16.34-.32.34-.41s-.13-.21-.21-.25l-8.59-4.7a2,2,0,0,0-1.73.13l-8,4.88c-.25.15-.34.31-.34.41s.13.2.21.25Z" transform="translate(-242.23 -115.06)"/><path class="cls-49" d="M354.12,276.58a2,2,0,0,1-1-.22l-13.85-7.57h0a.92.92,0,0,1-.52-.75,1.14,1.14,0,0,1,.63-.94l8-4.88a2.59,2.59,0,0,1,2.32-.14l13.85,7.57a.92.92,0,0,1,.52.76,1.14,1.14,0,0,1-.63.93l-8,4.88A2.62,2.62,0,0,1,354.12,276.58Zm-5.35-14.12a2,2,0,0,0-1,.27l-8,4.88c-.26.16-.34.32-.34.41s.13.21.21.25h0l13.85,7.57a1.92,1.92,0,0,0,1.72-.13l8-4.88c.26-.15.34-.31.34-.41s-.13-.2-.21-.24l-13.85-7.57A1.42,1.42,0,0,0,348.77,262.46Z" transform="translate(-242.23 -115.06)"/><path class="cls-49" d="M337.62,280.56a2.13,2.13,0,0,1-1-.22l-8.6-4.7a.88.88,0,0,1-.51-.75,1.13,1.13,0,0,1,.62-.94l8-4.88a2.59,2.59,0,0,1,2.32-.14l8.6,4.7a.88.88,0,0,1,.51.75,1.13,1.13,0,0,1-.62.94l-8,4.88A2.72,2.72,0,0,1,337.62,280.56Zm-.09-11.25a2.11,2.11,0,0,0-1,.27l-8,4.88c-.25.16-.34.32-.34.41s.13.21.21.25l8.59,4.7a2,2,0,0,0,1.73-.13l8-4.88c.25-.15.34-.31.34-.41s-.13-.2-.21-.25h0l-8.59-4.69A1.45,1.45,0,0,0,337.53,269.31Z" transform="translate(-242.23 -115.06)"/><path class="cls-49" d="M349.25,286.91a2,2,0,0,1-1-.22l-8.6-4.69a.89.89,0,0,1-.51-.76,1.11,1.11,0,0,1,.62-.93l8-4.88a2.53,2.53,0,0,1,2.32-.14l8.6,4.7a.89.89,0,0,1,.51.75,1.1,1.1,0,0,1-.62.93l-8,4.89A2.65,2.65,0,0,1,349.25,286.91Zm-.1-11.24a2,2,0,0,0-1,.27l-8,4.88c-.26.15-.34.31-.34.41s.13.2.21.24l8.59,4.7a2,2,0,0,0,1.73-.12l8-4.88c.25-.16.34-.32.34-.42s-.13-.2-.21-.24h0l-8.59-4.7A1.49,1.49,0,0,0,349.15,275.67Z" transform="translate(-242.23 -115.06)"/><path class="cls-49" d="M360.88,293.27a2,2,0,0,1-1-.22l-8.6-4.7a.9.9,0,0,1-.52-.75,1.12,1.12,0,0,1,.63-.93l8-4.89a2.55,2.55,0,0,1,2.32-.13l8.59,4.69a.9.9,0,0,1,.52.76,1.13,1.13,0,0,1-.62.93l-8,4.88A2.56,2.56,0,0,1,360.88,293.27Zm-.1-11.25a2,2,0,0,0-1,.27l-8,4.88c-.26.16-.34.32-.34.41s.13.21.21.25l8.59,4.7a1.92,1.92,0,0,0,1.72-.13l8-4.88c.25-.15.34-.31.34-.41s-.13-.2-.21-.24h0l-8.6-4.7A1.42,1.42,0,0,0,360.78,282Z" transform="translate(-242.23 -115.06)"/><path class="cls-49" d="M372.51,299.62a2,2,0,0,1-1-.22l-8.6-4.69a.92.92,0,0,1-.52-.75,1.14,1.14,0,0,1,.63-.94l8-4.88a2.55,2.55,0,0,1,2.32-.14l8.59,4.7a.88.88,0,0,1,.52.75,1.1,1.1,0,0,1-.62.93l-8,4.89A2.68,2.68,0,0,1,372.51,299.62Zm-.1-11.24a2,2,0,0,0-1,.27l-8,4.88c-.26.15-.34.31-.34.41s.13.2.21.25l8.59,4.69a2,2,0,0,0,1.72-.12l8-4.88c.25-.16.34-.32.34-.42s-.13-.2-.21-.24h0l-8.6-4.7A1.42,1.42,0,0,0,372.41,288.38Z" transform="translate(-242.23 -115.06)"/><path class="cls-49" d="M384.14,306a2.05,2.05,0,0,1-1-.22l-8.59-4.7a.88.88,0,0,1-.52-.75,1.1,1.1,0,0,1,.62-.93l8-4.88a2.52,2.52,0,0,1,2.32-.14l8.59,4.69a.9.9,0,0,1,.52.76,1.13,1.13,0,0,1-.62.93l-8,4.88A2.59,2.59,0,0,1,384.14,306Zm-.1-11.25a2.15,2.15,0,0,0-1,.27l-8,4.88c-.25.16-.34.32-.33.42s.13.2.2.24l8.6,4.7a1.92,1.92,0,0,0,1.72-.13l8-4.88c.25-.15.34-.31.34-.41s-.14-.2-.21-.24l-8.6-4.7A1.42,1.42,0,0,0,384,294.73Z" transform="translate(-242.23 -115.06)"/><path class="cls-49" d="M395.76,312.33a2,2,0,0,1-1-.22l-8.59-4.69a.9.9,0,0,1-.52-.75,1.13,1.13,0,0,1,.62-.94l8-4.88a2.59,2.59,0,0,1,2.32-.14l8.59,4.7a.9.9,0,0,1,.52.75,1.13,1.13,0,0,1-.62.94l-8,4.88A2.69,2.69,0,0,1,395.76,312.33Zm-.09-11.24a2,2,0,0,0-1,.27l-8,4.88c-.25.15-.34.31-.33.41s.13.2.2.25l8.6,4.69a1.92,1.92,0,0,0,1.72-.12l8-4.88c.25-.16.34-.32.33-.41s-.13-.21-.2-.25l-8.6-4.7A1.42,1.42,0,0,0,395.67,301.09Z" transform="translate(-242.23 -115.06)"/><path class="cls-49" d="M407.39,318.69a2,2,0,0,1-1-.22l-8.59-4.7a.87.87,0,0,1-.52-.75,1.1,1.1,0,0,1,.62-.93l8-4.88a2.52,2.52,0,0,1,2.32-.14l8.59,4.7a.87.87,0,0,1,.52.75,1.1,1.1,0,0,1-.63.93l-8,4.88A2.62,2.62,0,0,1,407.39,318.69Zm-.09-11.25a2.15,2.15,0,0,0-1,.27l-8,4.89c-.25.15-.34.31-.33.41s.13.2.2.24l8.6,4.7a1.92,1.92,0,0,0,1.72-.13l8-4.88c.25-.15.34-.31.33-.41s-.13-.2-.2-.24l-8.6-4.7A1.42,1.42,0,0,0,407.3,307.44Z" transform="translate(-242.23 -115.06)"/><path class="cls-49" d="M419,325a2.13,2.13,0,0,1-1-.21l-8.59-4.7a.9.9,0,0,1-.52-.75,1.13,1.13,0,0,1,.62-.94l8-4.88a2.59,2.59,0,0,1,2.32-.14l8.59,4.7a.9.9,0,0,1,.52.75,1.15,1.15,0,0,1-.62.94l-8,4.88A2.72,2.72,0,0,1,419,325Zm-.09-11.24a2,2,0,0,0-1,.27l-8,4.88c-.25.15-.34.31-.34.41s.14.21.21.25l8.6,4.69a1.92,1.92,0,0,0,1.72-.12l8-4.88c.25-.15.33-.31.33-.41s-.13-.21-.2-.25h0l-8.6-4.69A1.42,1.42,0,0,0,418.93,313.8Z" transform="translate(-242.23 -115.06)"/><path class="cls-49" d="M430.65,331.4a2,2,0,0,1-1-.22l-8.59-4.7a.87.87,0,0,1-.52-.75,1.1,1.1,0,0,1,.62-.93l8-4.88a2.5,2.5,0,0,1,2.31-.14l8.6,4.7a.87.87,0,0,1,.52.75,1.12,1.12,0,0,1-.63.93L432,331A2.62,2.62,0,0,1,430.65,331.4Zm-.09-11.25a2,2,0,0,0-1,.28l-8,4.88c-.25.15-.34.31-.34.41s.13.2.21.24l8.6,4.7a2,2,0,0,0,1.72-.12l8-4.89c.26-.15.34-.31.34-.41s-.13-.2-.21-.24l-8.59-4.7A1.42,1.42,0,0,0,430.56,320.15Z" transform="translate(-242.23 -115.06)"/><path class="cls-49" d="M442.28,337.76a2.13,2.13,0,0,1-1-.22l-8.6-4.7a.9.9,0,0,1-.51-.75,1.13,1.13,0,0,1,.62-.94l8-4.88a2.57,2.57,0,0,1,2.31-.14l8.6,4.7a.92.92,0,0,1,.52.75,1.14,1.14,0,0,1-.63.94l-8,4.88A2.72,2.72,0,0,1,442.28,337.76Zm-.09-11.25a2,2,0,0,0-1,.27l-8,4.88c-.25.16-.34.32-.34.41a.36.36,0,0,0,.21.25l8.6,4.7a2,2,0,0,0,1.72-.13l8-4.88c.26-.15.34-.31.34-.41s-.13-.2-.21-.25h0l-8.59-4.69A1.42,1.42,0,0,0,442.19,326.51Z" transform="translate(-242.23 -115.06)"/><path class="cls-49" d="M453.91,344.11a2,2,0,0,1-1-.22l-8.6-4.69a.91.91,0,0,1-.51-.76,1.13,1.13,0,0,1,.62-.93l8-4.88a2.5,2.5,0,0,1,2.31-.14l8.6,4.7h0a.87.87,0,0,1,.51.75,1.08,1.08,0,0,1-.62.93l-8,4.89A2.72,2.72,0,0,1,453.91,344.11Zm-.09-11.24a2.11,2.11,0,0,0-1.05.27l-8,4.88c-.25.15-.34.31-.34.41s.13.2.21.25l8.59,4.69a2,2,0,0,0,1.73-.12l8-4.88c.26-.16.34-.32.34-.42s-.13-.2-.21-.24h0L454.5,333A1.45,1.45,0,0,0,453.82,332.87Z" transform="translate(-242.23 -115.06)"/><path class="cls-49" d="M465.54,350.47a2,2,0,0,1-1-.22l-8.6-4.7a.87.87,0,0,1-.51-.75,1.1,1.1,0,0,1,.62-.93l8-4.89a2.55,2.55,0,0,1,2.32-.13l8.6,4.69a.89.89,0,0,1,.51.76,1.11,1.11,0,0,1-.62.93l-8,4.88A2.62,2.62,0,0,1,465.54,350.47Zm-.09-11.25a2.22,2.22,0,0,0-1.05.27l-8,4.88c-.25.16-.34.32-.34.41s.13.21.21.25l8.59,4.7a2,2,0,0,0,1.73-.13l8-4.88c.25-.15.34-.31.34-.41s-.13-.2-.21-.24h0l-8.59-4.7A1.45,1.45,0,0,0,465.45,339.22Z" transform="translate(-242.23 -115.06)"/><path class="cls-49" d="M477.17,356.82a2,2,0,0,1-1-.22l-8.6-4.69a.89.89,0,0,1-.51-.76,1.13,1.13,0,0,1,.62-.93l8-4.88a2.55,2.55,0,0,1,2.32-.14l8.6,4.7a.89.89,0,0,1,.51.75,1.13,1.13,0,0,1-.62.94l-8,4.88A2.65,2.65,0,0,1,477.17,356.82Zm-.09-11.24a2.08,2.08,0,0,0-1.05.27l-8,4.88c-.25.15-.34.31-.34.41s.13.2.21.25l8.59,4.69a2,2,0,0,0,1.73-.12l8-4.88c.25-.16.34-.32.34-.41s-.13-.21-.21-.25l-8.59-4.7A1.45,1.45,0,0,0,477.08,345.58Z" transform="translate(-242.23 -115.06)"/><path class="cls-49" d="M494.05,366.05a2,2,0,0,1-1-.22l-13.85-7.57a.86.86,0,0,1-.51-.75,1.08,1.08,0,0,1,.62-.93l8-4.88a2.52,2.52,0,0,1,2.32-.14l13.85,7.57a.88.88,0,0,1,.52.75,1.12,1.12,0,0,1-.63.93l-8,4.88A2.62,2.62,0,0,1,494.05,366.05Zm-5.35-14.12a2,2,0,0,0-1,.27l-8,4.89c-.26.15-.34.31-.34.41s.13.2.21.24l13.85,7.57a1.92,1.92,0,0,0,1.72-.13l8-4.88c.25-.15.33-.31.33-.41s-.13-.2-.2-.24l-13.85-7.57A1.49,1.49,0,0,0,488.7,351.93Z" transform="translate(-242.23 -115.06)"/><path class="cls-49" d="M334.77,292a2.17,2.17,0,0,1-1-.21l-17-9.29a.89.89,0,0,1-.51-.75,1.13,1.13,0,0,1,.62-.94l8-4.88a2.53,2.53,0,0,1,2.31-.13l17,9.28a.9.9,0,0,1,.52.75,1.13,1.13,0,0,1-.62.94l-8,4.88A2.68,2.68,0,0,1,334.77,292Zm-8.49-15.83a2.11,2.11,0,0,0-1,.27l-8,4.88c-.25.16-.34.32-.34.42s.13.2.21.24l17,9.28a2,2,0,0,0,1.72-.12l8-4.88c.25-.16.34-.31.34-.41s-.14-.21-.21-.25h0l-17-9.28A1.45,1.45,0,0,0,326.28,276.16Z" transform="translate(-242.23 -115.06)"/><path class="cls-49" d="M482.71,372.85a2,2,0,0,1-1-.22l-17-9.28a.9.9,0,0,1-.52-.76,1.12,1.12,0,0,1,.63-.93l8-4.88a2.52,2.52,0,0,1,2.32-.14l17,9.28a.89.89,0,0,1,.51.76,1.13,1.13,0,0,1-.62.93l-8,4.88A2.62,2.62,0,0,1,482.71,372.85ZM474.22,357a2,2,0,0,0-1,.28l-8,4.88c-.25.15-.34.31-.33.41s.13.2.2.24l17,9.29a2,2,0,0,0,1.73-.13l8-4.88c.25-.15.34-.31.34-.41s-.13-.2-.21-.24l-17-9.29A1.42,1.42,0,0,0,474.22,357Z" transform="translate(-242.23 -115.06)"/><path class="cls-49" d="M346.39,298.35a2,2,0,0,1-1-.22l-8.59-4.7a.87.87,0,0,1-.52-.75,1.1,1.1,0,0,1,.62-.93l8-4.88a2.52,2.52,0,0,1,2.32-.14l8.59,4.7a.87.87,0,0,1,.52.75,1.1,1.1,0,0,1-.62.93l-8,4.88A2.6,2.6,0,0,1,346.39,298.35Zm-.09-11.25a2.15,2.15,0,0,0-1,.27l-8,4.89c-.25.15-.34.31-.33.41s.13.2.2.24l8.6,4.7a1.92,1.92,0,0,0,1.72-.13l8-4.88c.25-.15.34-.31.33-.41s-.13-.2-.2-.24h0l-8.6-4.7A1.42,1.42,0,0,0,346.3,287.1Z" transform="translate(-242.23 -115.06)"/><path class="cls-49" d="M358,304.7a2.13,2.13,0,0,1-1-.21l-8.59-4.7a.88.88,0,0,1-.52-.75,1.13,1.13,0,0,1,.62-.94l8-4.88a2.52,2.52,0,0,1,2.32-.13l8.59,4.69a.9.9,0,0,1,.52.75,1.15,1.15,0,0,1-.62.94l-8,4.88A2.72,2.72,0,0,1,358,304.7Zm-.09-11.24a2,2,0,0,0-1,.27l-8,4.88c-.25.15-.34.32-.34.41s.14.21.21.25l8.6,4.69a1.92,1.92,0,0,0,1.72-.12l8-4.88c.25-.15.34-.31.33-.41s-.13-.21-.2-.25l-8.6-4.69A1.42,1.42,0,0,0,357.93,293.46Z" transform="translate(-242.23 -115.06)"/><path class="cls-49" d="M369.65,311.06a2,2,0,0,1-1-.22l-8.59-4.69a.9.9,0,0,1-.52-.76,1.1,1.1,0,0,1,.62-.93l8-4.88a2.5,2.5,0,0,1,2.31-.14l8.6,4.7a.87.87,0,0,1,.52.75,1.12,1.12,0,0,1-.62.93l-8,4.88A2.62,2.62,0,0,1,369.65,311.06Zm-.09-11.25a2,2,0,0,0-1,.28l-8,4.88c-.25.15-.34.31-.34.41s.14.2.21.24l8.6,4.7a2,2,0,0,0,1.72-.12l8-4.89c.25-.15.33-.31.33-.41s-.13-.2-.2-.24h0l-8.59-4.7A1.42,1.42,0,0,0,369.56,299.81Z" transform="translate(-242.23 -115.06)"/><path class="cls-49" d="M381.28,317.42a2.13,2.13,0,0,1-1-.22l-8.59-4.7a.88.88,0,0,1-.52-.75,1.13,1.13,0,0,1,.62-.94l8-4.88a2.57,2.57,0,0,1,2.31-.14l8.6,4.7a.9.9,0,0,1,.52.76,1.14,1.14,0,0,1-.63.93l-8,4.88A2.72,2.72,0,0,1,381.28,317.42Zm-.09-11.25a2,2,0,0,0-1,.27l-8,4.88c-.25.16-.34.32-.34.41a.36.36,0,0,0,.21.25l8.6,4.7a2,2,0,0,0,1.72-.13l8-4.88c.25-.15.33-.31.33-.41s-.13-.2-.21-.25l-8.59-4.69A1.42,1.42,0,0,0,381.19,306.17Z" transform="translate(-242.23 -115.06)"/><path class="cls-49" d="M392.91,323.77a2,2,0,0,1-1-.22l-8.6-4.69a.91.91,0,0,1-.51-.76,1.13,1.13,0,0,1,.62-.93l8-4.88a2.5,2.5,0,0,1,2.31-.14l8.6,4.7a.9.9,0,0,1,.52.75,1.12,1.12,0,0,1-.63.93l-8,4.88A2.62,2.62,0,0,1,392.91,323.77Zm-.09-11.24a2,2,0,0,0-1,.27l-8,4.88c-.25.15-.34.31-.34.41s.13.2.21.24l8.6,4.7a2,2,0,0,0,1.72-.12l8-4.88c.26-.16.34-.32.34-.42s-.13-.2-.21-.24h0l-8.59-4.7A1.45,1.45,0,0,0,392.82,312.53Z" transform="translate(-242.23 -115.06)"/><path class="cls-49" d="M404.54,330.13a2,2,0,0,1-1-.22l-8.6-4.7a.89.89,0,0,1-.51-.75,1.1,1.1,0,0,1,.62-.93l8-4.89a2.53,2.53,0,0,1,2.31-.13l8.6,4.69a.89.89,0,0,1,.51.76,1.11,1.11,0,0,1-.62.93l-8,4.88A2.72,2.72,0,0,1,404.54,330.13Zm-.09-11.25a2.11,2.11,0,0,0-1.05.27l-8,4.88c-.25.16-.34.32-.34.41s.13.21.21.25l8.59,4.7a1.94,1.94,0,0,0,1.73-.13l8-4.88c.25-.15.34-.31.34-.41s-.13-.2-.21-.25L405.13,319A1.45,1.45,0,0,0,404.45,318.88Z" transform="translate(-242.23 -115.06)"/><path class="cls-49" d="M416.17,336.48a2.13,2.13,0,0,1-1-.21l-8.6-4.7a.89.89,0,0,1-.51-.76,1.11,1.11,0,0,1,.62-.93l8-4.88a2.53,2.53,0,0,1,2.32-.14l8.6,4.7a.87.87,0,0,1,.51.75,1.13,1.13,0,0,1-.62.94l-8,4.88A2.72,2.72,0,0,1,416.17,336.48Zm-.1-11.24a2,2,0,0,0-1,.27l-8,4.88c-.25.15-.34.31-.34.41s.13.2.21.24l8.59,4.7a2,2,0,0,0,1.73-.12l8-4.88c.25-.16.34-.32.34-.41s-.13-.21-.21-.25h0l-8.59-4.7A1.47,1.47,0,0,0,416.07,325.24Z" transform="translate(-242.23 -115.06)"/><path class="cls-49" d="M427.8,342.84a2,2,0,0,1-1-.22l-8.6-4.7a.87.87,0,0,1-.51-.75,1.08,1.08,0,0,1,.62-.93l8-4.89a2.55,2.55,0,0,1,2.32-.13l8.6,4.69a.91.91,0,0,1,.51.76,1.13,1.13,0,0,1-.62.93l-8,4.88A2.56,2.56,0,0,1,427.8,342.84Zm-.09-11.25a2.16,2.16,0,0,0-1,.27l-8,4.88c-.26.16-.34.32-.34.42s.13.2.21.24l8.59,4.7a1.94,1.94,0,0,0,1.73-.13l8-4.88c.25-.15.34-.31.34-.41s-.13-.2-.21-.24h0l-8.59-4.7A1.45,1.45,0,0,0,427.71,331.59Z" transform="translate(-242.23 -115.06)"/><path class="cls-49" d="M439.43,349.19a2.1,2.1,0,0,1-1-.21l-8.6-4.7a.88.88,0,0,1-.51-.75,1.11,1.11,0,0,1,.62-.94l8-4.88a2.55,2.55,0,0,1,2.32-.14l8.6,4.7h0a.9.9,0,0,1,.51.75,1.13,1.13,0,0,1-.62.94l-8,4.88A2.65,2.65,0,0,1,439.43,349.19Zm-.1-11.24a2,2,0,0,0-1,.27l-8,4.88c-.26.15-.34.31-.34.41s.13.21.21.25l8.59,4.69a2,2,0,0,0,1.73-.12l8-4.88c.25-.16.34-.32.34-.41a.36.36,0,0,0-.21-.25h0L440,338.1A1.42,1.42,0,0,0,439.33,338Z" transform="translate(-242.23 -115.06)"/><path class="cls-49" d="M451.06,355.55a2,2,0,0,1-1-.22l-8.6-4.7a.87.87,0,0,1-.52-.75,1.12,1.12,0,0,1,.63-.93l8-4.88a2.52,2.52,0,0,1,2.32-.14l8.59,4.7h0a.87.87,0,0,1,.52.75,1.1,1.1,0,0,1-.62.93l-8,4.88A2.59,2.59,0,0,1,451.06,355.55ZM451,344.3a2,2,0,0,0-1,.28l-8,4.88c-.26.15-.34.31-.34.41s.13.2.21.24l8.59,4.7a2,2,0,0,0,1.72-.12l8-4.89c.25-.15.34-.31.34-.41s-.13-.2-.21-.24h0l-8.6-4.7A1.42,1.42,0,0,0,451,344.3Z" transform="translate(-242.23 -115.06)"/><path class="cls-49" d="M462.69,361.91a2.18,2.18,0,0,1-1-.22l-8.59-4.7a.9.9,0,0,1-.52-.75,1.14,1.14,0,0,1,.63-.94l8-4.88a2.59,2.59,0,0,1,2.32-.14l8.59,4.7a.9.9,0,0,1,.52.75,1.13,1.13,0,0,1-.62.94l-8,4.88A2.69,2.69,0,0,1,462.69,361.91Zm-.1-11.25a2,2,0,0,0-1,.27l-8,4.88c-.25.16-.33.31-.33.41s.13.21.21.25l8.59,4.69a2,2,0,0,0,1.72-.12l8-4.88c.25-.15.34-.31.34-.41s-.14-.2-.21-.25h0l-8.6-4.69A1.42,1.42,0,0,0,462.59,350.66Z" transform="translate(-242.23 -115.06)"/><path class="cls-49" d="M329.29,302a2,2,0,0,1-1-.22l-22.76-12.44a.88.88,0,0,1-.52-.75,1.13,1.13,0,0,1,.62-.94l8-4.88a2.59,2.59,0,0,1,2.32-.14l22.76,12.45a.86.86,0,0,1,.51.75,1.08,1.08,0,0,1-.62.93l-8,4.88A2.62,2.62,0,0,1,329.29,302ZM315,283a2,2,0,0,0-1,.27l-8,4.88c-.25.16-.34.32-.33.41s.13.21.2.25l22.76,12.44a1.94,1.94,0,0,0,1.73-.13l8-4.88c.26-.15.34-.31.34-.41s-.13-.2-.21-.24h0l-22.76-12.44A1.42,1.42,0,0,0,315,283Z" transform="translate(-242.23 -115.06)"/><path class="cls-49" d="M340.92,308.35a2.13,2.13,0,0,1-1-.21l-8.6-4.7a.88.88,0,0,1-.51-.75,1.13,1.13,0,0,1,.62-.94l8-4.88a2.55,2.55,0,0,1,2.32-.13l8.6,4.69h0a.88.88,0,0,1,.51.75,1.13,1.13,0,0,1-.62.94l-8,4.88A2.72,2.72,0,0,1,340.92,308.35Zm-.09-11.24a2.11,2.11,0,0,0-1.05.27l-8,4.88c-.25.16-.34.31-.34.41s.13.21.21.25l8.59,4.69a2,2,0,0,0,1.73-.12l8-4.88c.25-.15.34-.31.34-.41s-.13-.21-.21-.25h0l-8.59-4.69A1.45,1.45,0,0,0,340.83,297.11Z" transform="translate(-242.23 -115.06)"/><path class="cls-49" d="M352.55,314.71a2,2,0,0,1-1-.22L343,309.8a.89.89,0,0,1-.51-.76,1.11,1.11,0,0,1,.62-.93l8-4.88a2.52,2.52,0,0,1,2.32-.14l8.6,4.7h0a.88.88,0,0,1,.51.75,1.1,1.1,0,0,1-.62.93l-8,4.88A2.62,2.62,0,0,1,352.55,314.71Zm-.1-11.25a2,2,0,0,0-1,.28l-8,4.88c-.25.15-.34.31-.34.41s.13.2.21.24l8.59,4.7a2,2,0,0,0,1.73-.12l8-4.89c.25-.15.34-.31.34-.41s-.13-.2-.21-.24h0l-8.59-4.7A1.47,1.47,0,0,0,352.45,303.46Z" transform="translate(-242.23 -115.06)"/><path class="cls-49" d="M364.18,321.07a2.1,2.1,0,0,1-1-.22l-8.6-4.7a.87.87,0,0,1-.51-.75,1.11,1.11,0,0,1,.62-.94l8-4.88a2.55,2.55,0,0,1,2.32-.13l8.6,4.69a.91.91,0,0,1,.51.76,1.13,1.13,0,0,1-.62.93l-8,4.88A2.66,2.66,0,0,1,364.18,321.07Zm-.1-11.25a2,2,0,0,0-1,.27L355,315c-.26.16-.34.32-.34.41s.13.21.21.25l8.59,4.7a2,2,0,0,0,1.73-.13l8-4.88c.25-.15.34-.31.34-.41s-.13-.2-.21-.25l-8.6-4.69A1.42,1.42,0,0,0,364.08,309.82Z" transform="translate(-242.23 -115.06)"/><path class="cls-49" d="M375.81,327.42a2,2,0,0,1-1-.22l-8.6-4.69a.9.9,0,0,1-.52-.76,1.14,1.14,0,0,1,.63-.93l8-4.88a2.52,2.52,0,0,1,2.32-.14l8.59,4.7a.88.88,0,0,1,.52.75,1.1,1.1,0,0,1-.62.93l-8,4.89A2.68,2.68,0,0,1,375.81,327.42Zm-.1-11.24a2,2,0,0,0-1,.27l-8,4.88c-.26.15-.34.31-.34.41s.13.2.21.25l8.59,4.69a2,2,0,0,0,1.72-.12l8-4.88c.25-.16.34-.32.34-.41A.36.36,0,0,0,385,321l-8.6-4.7A1.42,1.42,0,0,0,375.71,316.18Z" transform="translate(-242.23 -115.06)"/><path class="cls-49" d="M387.44,333.78a2.18,2.18,0,0,1-1-.22l-8.59-4.7a.88.88,0,0,1-.52-.75,1.12,1.12,0,0,1,.63-.93l8-4.89a2.55,2.55,0,0,1,2.32-.13l8.59,4.69a.9.9,0,0,1,.52.76,1.13,1.13,0,0,1-.62.93l-8,4.88A2.69,2.69,0,0,1,387.44,333.78Zm-.1-11.25a2,2,0,0,0-1,.27l-8,4.88c-.25.16-.33.32-.33.41s.13.21.2.25l8.6,4.7a2,2,0,0,0,1.72-.13l8-4.88c.25-.15.34-.31.34-.41s-.13-.2-.21-.25l-8.6-4.69A1.42,1.42,0,0,0,387.34,322.53Z" transform="translate(-242.23 -115.06)"/><path class="cls-49" d="M399.06,340.13a2.16,2.16,0,0,1-1-.21l-8.59-4.7a.9.9,0,0,1-.52-.75,1.13,1.13,0,0,1,.62-.94l8-4.88a2.52,2.52,0,0,1,2.32-.14l8.59,4.7a.88.88,0,0,1,.52.75,1.1,1.1,0,0,1-.62.93l-8,4.89A2.69,2.69,0,0,1,399.06,340.13ZM399,328.89a2,2,0,0,0-1,.27l-8,4.88c-.25.15-.34.31-.33.41s.13.2.2.24l8.6,4.7a2,2,0,0,0,1.72-.12l8-4.88c.25-.16.34-.32.33-.41s-.13-.21-.2-.25l-8.6-4.7A1.42,1.42,0,0,0,399,328.89Z" transform="translate(-242.23 -115.06)"/><path class="cls-49" d="M410.69,346.49a2,2,0,0,1-1-.22l-8.59-4.7a.87.87,0,0,1-.52-.75,1.1,1.1,0,0,1,.62-.93l8-4.89a2.55,2.55,0,0,1,2.32-.13l8.59,4.69a.9.9,0,0,1,.52.76,1.12,1.12,0,0,1-.62.93l-8,4.88A2.62,2.62,0,0,1,410.69,346.49Zm-.09-11.25a2.15,2.15,0,0,0-1,.27l-8,4.88c-.25.16-.34.32-.33.42s.13.2.2.24l8.6,4.7a1.92,1.92,0,0,0,1.72-.13l8-4.88c.25-.15.34-.31.33-.41s-.13-.2-.2-.24l-8.6-4.7A1.42,1.42,0,0,0,410.6,335.24Z" transform="translate(-242.23 -115.06)"/><path class="cls-49" d="M422.32,352.84a2.13,2.13,0,0,1-1-.21l-8.59-4.7a.9.9,0,0,1-.52-.75,1.13,1.13,0,0,1,.62-.94l8-4.88a2.55,2.55,0,0,1,2.32-.14l8.59,4.7a.9.9,0,0,1,.52.75,1.12,1.12,0,0,1-.63.94l-8,4.88A2.72,2.72,0,0,1,422.32,352.84Zm-.09-11.24a2,2,0,0,0-1,.27l-8,4.88c-.25.15-.34.31-.33.41s.13.21.2.25l8.6,4.69a2,2,0,0,0,1.72-.12l8-4.88c.25-.16.34-.32.33-.41s-.13-.21-.2-.25h0l-8.6-4.7A1.42,1.42,0,0,0,422.23,341.6Z" transform="translate(-242.23 -115.06)"/><path class="cls-49" d="M434,359.2a2,2,0,0,1-1-.22l-8.59-4.7a.87.87,0,0,1-.52-.75,1.1,1.1,0,0,1,.62-.93l8-4.88a2.52,2.52,0,0,1,2.32-.14l8.59,4.7a.87.87,0,0,1,.52.75,1.1,1.1,0,0,1-.63.93l-8,4.88A2.62,2.62,0,0,1,434,359.2ZM433.86,348a2.15,2.15,0,0,0-1,.27l-8,4.89c-.25.15-.34.31-.34.41s.14.2.21.24l8.6,4.7a2,2,0,0,0,1.72-.12l8-4.89c.25-.15.34-.31.33-.41s-.13-.2-.2-.24h0l-8.6-4.7A1.42,1.42,0,0,0,433.86,348Z" transform="translate(-242.23 -115.06)"/><path class="cls-49" d="M445.58,365.55a2.13,2.13,0,0,1-1-.21l-8.59-4.7a.9.9,0,0,1-.52-.75,1.13,1.13,0,0,1,.62-.94l8-4.88a2.53,2.53,0,0,1,2.31-.13l8.6,4.69h0a.9.9,0,0,1,.52.75,1.14,1.14,0,0,1-.63.94l-8,4.88A2.72,2.72,0,0,1,445.58,365.55Zm-.09-11.24a2,2,0,0,0-1,.27l-8,4.88c-.25.15-.34.31-.34.41a.36.36,0,0,0,.21.25l8.6,4.69a2,2,0,0,0,1.72-.12l8-4.88c.26-.15.34-.31.34-.41s-.13-.2-.21-.25h0l-8.59-4.69A1.42,1.42,0,0,0,445.49,354.31Z" transform="translate(-242.23 -115.06)"/><path class="cls-49" d="M471.46,379.7a2,2,0,0,1-1-.22L447.65,367a.9.9,0,0,1-.52-.76,1.1,1.1,0,0,1,.62-.93l8-4.88a2.5,2.5,0,0,1,2.31-.14l22.85,12.48a.92.92,0,0,1,.52.76,1.14,1.14,0,0,1-.63.93l-8,4.88A2.62,2.62,0,0,1,471.46,379.7Zm-14.34-19a2,2,0,0,0-1,.28l-8,4.88c-.25.15-.34.31-.34.41s.13.2.21.24L470.78,379a1.92,1.92,0,0,0,1.72-.13l8-4.88c.26-.15.34-.31.34-.41s-.13-.2-.21-.24L457.8,360.81A1.42,1.42,0,0,0,457.12,360.66Z" transform="translate(-242.23 -115.06)"/><path class="cls-49" d="M411.08,359.69a2.17,2.17,0,0,1-1-.21L355,329.36a.89.89,0,0,1-.51-.76,1.11,1.11,0,0,1,.62-.93l8-4.88a2.52,2.52,0,0,1,2.32-.14l55.11,30.12a.9.9,0,0,1,.52.75,1.13,1.13,0,0,1-.62.94l-8,4.88A2.68,2.68,0,0,1,411.08,359.69ZM364.47,323a2.05,2.05,0,0,0-1.05.27l-8,4.88c-.25.15-.34.31-.34.41s.13.2.21.24L410.39,359a2,2,0,0,0,1.72-.12l8-4.88c.25-.16.34-.32.34-.41s-.14-.21-.21-.25h0l-55.11-30.12A1.48,1.48,0,0,0,364.47,323Z" transform="translate(-242.23 -115.06)"/><path class="cls-49" d="M338.76,320.17a2,2,0,0,1-1-.22l-8.59-4.69a.9.9,0,0,1-.52-.75,1.13,1.13,0,0,1,.62-.94l8-4.88a2.59,2.59,0,0,1,2.32-.14l8.59,4.7a.9.9,0,0,1,.52.75,1.14,1.14,0,0,1-.63.94l-8,4.88A2.72,2.72,0,0,1,338.76,320.17Zm-.09-11.24a2,2,0,0,0-1,.27l-8,4.88c-.25.15-.34.31-.34.41s.14.2.21.25l8.6,4.69a1.92,1.92,0,0,0,1.72-.12l8-4.88c.25-.16.33-.31.33-.41s-.13-.21-.21-.25l-8.59-4.7A1.42,1.42,0,0,0,338.67,308.93Z" transform="translate(-242.23 -115.06)"/><path class="cls-49" d="M352.93,327.92a2.13,2.13,0,0,1-1-.22l-11.13-6.09a.87.87,0,0,1-.52-.75,1.1,1.1,0,0,1,.62-.93l8-4.88a2.5,2.5,0,0,1,2.31-.14L362.4,321a.88.88,0,0,1,.51.75,1.11,1.11,0,0,1-.62.94l-8,4.88A2.62,2.62,0,0,1,352.93,327.92Zm-2.63-12.64a2.15,2.15,0,0,0-1,.27l-8,4.89c-.25.15-.34.31-.34.41s.13.2.21.24l11.13,6.09a2,2,0,0,0,1.73-.13l8-4.88c.25-.15.34-.31.34-.41s-.13-.2-.21-.24h0L351,315.43A1.42,1.42,0,0,0,350.3,315.28Z" transform="translate(-242.23 -115.06)"/><path class="cls-49" d="M436.87,373.79a2,2,0,0,1-1-.22l-8.59-4.69a.9.9,0,0,1-.52-.76,1.13,1.13,0,0,1,.62-.93l8-4.88a2.5,2.5,0,0,1,2.31-.14h0l8.59,4.7a.88.88,0,0,1,.52.75,1.12,1.12,0,0,1-.63.93l-8,4.89A2.72,2.72,0,0,1,436.87,373.79Zm-.09-11.24a2,2,0,0,0-1,.27l-8,4.88c-.25.15-.34.31-.34.41s.13.2.21.24l8.6,4.7a2,2,0,0,0,1.72-.12l8-4.88c.25-.16.33-.32.33-.41s-.13-.21-.21-.25l-8.59-4.7h0A1.42,1.42,0,0,0,436.78,362.55Z" transform="translate(-242.23 -115.06)"/><path class="cls-49" d="M425.24,367.44a2.13,2.13,0,0,1-1-.22l-11.13-6.09a.87.87,0,0,1-.52-.75,1.1,1.1,0,0,1,.62-.93l8-4.88a2.52,2.52,0,0,1,2.32-.14l11.13,6.08a.9.9,0,0,1,.52.76,1.15,1.15,0,0,1-.62.93l-8,4.88A2.72,2.72,0,0,1,425.24,367.44Zm-2.63-12.64a2.15,2.15,0,0,0-1,.27l-8,4.89c-.25.15-.34.31-.33.41s.13.2.2.24l11.14,6.09a1.92,1.92,0,0,0,1.72-.13l8-4.88c.25-.15.34-.31.33-.41s-.13-.2-.2-.25L423.29,355A1.42,1.42,0,0,0,422.61,354.8Z" transform="translate(-242.23 -115.06)"/><path class="cls-49" d="M303.87,301.11a2,2,0,0,1-1-.22l-8.59-4.7a.88.88,0,0,1-.52-.75,1.1,1.1,0,0,1,.62-.93l8-4.89a2.55,2.55,0,0,1,2.32-.13l8.59,4.69a.9.9,0,0,1,.52.76,1.13,1.13,0,0,1-.62.93l-8,4.88A2.6,2.6,0,0,1,303.87,301.11Zm-.09-11.25a2,2,0,0,0-1,.27l-8,4.88c-.25.16-.34.32-.33.41s.13.21.2.25l8.6,4.7a1.92,1.92,0,0,0,1.72-.13l8-4.88c.25-.15.34-.31.33-.41s-.13-.2-.2-.24h0l-8.6-4.7A1.42,1.42,0,0,0,303.78,289.86Z" transform="translate(-242.23 -115.06)"/><path class="cls-49" d="M315.5,307.46a2,2,0,0,1-1-.22l-8.59-4.69a.9.9,0,0,1-.52-.76,1.13,1.13,0,0,1,.62-.93l8-4.88a2.52,2.52,0,0,1,2.32-.14l8.59,4.7a.88.88,0,0,1,.52.75,1.1,1.1,0,0,1-.62.93l-8,4.89A2.69,2.69,0,0,1,315.5,307.46Zm-.09-11.24a2,2,0,0,0-1,.27l-8,4.88c-.25.15-.34.31-.33.41s.13.2.2.25l8.6,4.69a2,2,0,0,0,1.72-.12l8-4.88c.25-.16.34-.32.33-.41s-.13-.21-.2-.25l-8.6-4.7A1.42,1.42,0,0,0,315.41,296.22Z" transform="translate(-242.23 -115.06)"/><path class="cls-49" d="M327.13,313.82a2,2,0,0,1-1-.22l-8.59-4.7a.88.88,0,0,1-.52-.75,1.1,1.1,0,0,1,.62-.93l8-4.89a2.55,2.55,0,0,1,2.32-.13l8.59,4.69a.9.9,0,0,1,.52.76,1.12,1.12,0,0,1-.63.93l-8,4.88A2.62,2.62,0,0,1,327.13,313.82ZM327,302.57a2.15,2.15,0,0,0-1,.27l-8,4.88c-.25.16-.34.32-.34.42s.14.2.21.24l8.6,4.7a1.92,1.92,0,0,0,1.72-.13l8-4.88c.25-.15.34-.31.33-.41s-.13-.2-.2-.24h0l-8.6-4.7A1.42,1.42,0,0,0,327,302.57Z" transform="translate(-242.23 -115.06)"/><path class="cls-49" d="M460.21,386.55a2,2,0,0,1-1-.22l-20.3-11.1a.88.88,0,0,1-.52-.75,1.1,1.1,0,0,1,.62-.93l8-4.89a2.53,2.53,0,0,1,2.31-.13l20.31,11.1h0a.87.87,0,0,1,.52.75,1.1,1.1,0,0,1-.63.93l-8,4.88A2.62,2.62,0,0,1,460.21,386.55Zm-11.8-17.65a2.15,2.15,0,0,0-1,.27l-8,4.88c-.25.16-.34.32-.34.42s.13.2.21.24l20.31,11.1a1.92,1.92,0,0,0,1.72-.13l8-4.88c.25-.15.34-.31.33-.41s-.13-.2-.2-.24h0l-20.31-11.1A1.42,1.42,0,0,0,448.41,368.9Z" transform="translate(-242.23 -115.06)"/><path class="cls-49" d="M516.55,352.35a2,2,0,0,1-1-.22l-8.6-4.7a.87.87,0,0,1-.51-.75,1.08,1.08,0,0,1,.62-.93l4-2.43a2.53,2.53,0,0,1,2.32-.14l8.6,4.7a.88.88,0,0,1,.51.75,1.13,1.13,0,0,1-.62.94l-4,2.42A2.62,2.62,0,0,1,516.55,352.35Zm-4.12-8.79a2.05,2.05,0,0,0-1,.27l-4,2.43c-.25.15-.34.31-.34.41s.13.2.21.24l8.59,4.7a2,2,0,0,0,1.73-.12l4-2.43c.25-.15.34-.31.34-.41s-.13-.21-.21-.25l-8.59-4.7A1.59,1.59,0,0,0,512.43,343.56Z" transform="translate(-242.23 -115.06)"/><path class="cls-49" d="M504.92,346a2.13,2.13,0,0,1-1-.21l-8.6-4.7a.89.89,0,0,1-.51-.76,1.13,1.13,0,0,1,.62-.93l4-2.43a2.55,2.55,0,0,1,2.32-.13l8.6,4.69a.89.89,0,0,1,.51.76,1.11,1.11,0,0,1-.62.93l-4,2.43A2.72,2.72,0,0,1,504.92,346Zm-4.12-8.79a2.19,2.19,0,0,0-1.05.27l-4,2.43c-.25.15-.34.31-.34.41s.13.21.21.25l8.59,4.69a2,2,0,0,0,1.73-.12l4-2.43c.25-.15.34-.31.34-.41s-.13-.2-.21-.24l-8.59-4.7A1.45,1.45,0,0,0,500.8,337.2Z" transform="translate(-242.23 -115.06)"/><path class="cls-49" d="M493.29,339.64a2,2,0,0,1-1-.22l-8.6-4.7a.89.89,0,0,1-.51-.75,1.1,1.1,0,0,1,.62-.93l4-2.43a2.53,2.53,0,0,1,2.31-.14l8.6,4.7a.88.88,0,0,1,.51.75,1.08,1.08,0,0,1-.62.93l-4,2.43A2.62,2.62,0,0,1,493.29,339.64Zm-4.12-8.79a2.11,2.11,0,0,0-1.05.27l-4,2.42c-.25.16-.34.32-.34.42s.13.2.21.24l8.59,4.7a2,2,0,0,0,1.73-.13l4-2.42c.26-.16.34-.32.34-.41s-.13-.21-.21-.25l-8.59-4.7A1.45,1.45,0,0,0,489.17,330.85Z" transform="translate(-242.23 -115.06)"/><path class="cls-49" d="M481.66,333.28a2.13,2.13,0,0,1-1-.21l-8.6-4.7h0a.9.9,0,0,1-.52-.76,1.13,1.13,0,0,1,.62-.93l4-2.43a2.53,2.53,0,0,1,2.31-.13l8.6,4.69a.89.89,0,0,1,.51.76,1.11,1.11,0,0,1-.62.93l-4,2.43A2.72,2.72,0,0,1,481.66,333.28Zm-4.12-8.79a2,2,0,0,0-1,.27l-4,2.43c-.25.15-.34.31-.34.41s.13.2.21.24h0l8.6,4.7a2,2,0,0,0,1.72-.12l4-2.43c.26-.15.34-.31.34-.41s-.13-.2-.21-.24l-8.59-4.7A1.42,1.42,0,0,0,477.54,324.49Z" transform="translate(-242.23 -115.06)"/><path class="cls-49" d="M470,326.93a2.13,2.13,0,0,1-1-.22l-8.59-4.7a.88.88,0,0,1-.52-.75,1.1,1.1,0,0,1,.62-.93l4-2.43a2.52,2.52,0,0,1,2.32-.14l8.59,4.7a.88.88,0,0,1,.52.75,1.12,1.12,0,0,1-.63.93l-4,2.43A2.62,2.62,0,0,1,470,326.93Zm-4.12-8.79a2,2,0,0,0-1,.27l-4,2.42c-.25.16-.34.32-.34.41a.36.36,0,0,0,.21.25h0l8.6,4.7a1.92,1.92,0,0,0,1.72-.13l4-2.42c.26-.16.34-.32.34-.42s-.13-.2-.21-.24l-8.59-4.7A1.42,1.42,0,0,0,465.91,318.14Z" transform="translate(-242.23 -115.06)"/><path class="cls-49" d="M458.4,320.57a2,2,0,0,1-1-.22l-8.59-4.69a.9.9,0,0,1-.52-.76,1.13,1.13,0,0,1,.62-.93l4-2.43a2.55,2.55,0,0,1,2.32-.13l8.59,4.69a.9.9,0,0,1,.52.75,1.12,1.12,0,0,1-.63.94l-4,2.43A2.72,2.72,0,0,1,458.4,320.57Zm-4.12-8.79a2,2,0,0,0-1,.27l-4,2.43c-.25.15-.34.31-.34.41s.14.2.21.24h0l8.6,4.7a2,2,0,0,0,1.72-.12l4-2.43c.25-.15.34-.31.33-.41s-.13-.2-.2-.25l-8.6-4.69A1.42,1.42,0,0,0,454.28,311.78Z" transform="translate(-242.23 -115.06)"/><path class="cls-49" d="M446.77,314.22a2.13,2.13,0,0,1-1-.22l-8.59-4.7a.88.88,0,0,1-.52-.75,1.13,1.13,0,0,1,.62-.94l4-2.42a2.52,2.52,0,0,1,2.32-.14l8.59,4.7a.87.87,0,0,1,.52.75,1.1,1.1,0,0,1-.62.93l-4,2.43A2.72,2.72,0,0,1,446.77,314.22Zm-4.12-8.8a2.15,2.15,0,0,0-1,.27l-4,2.43c-.25.16-.34.32-.33.41s.13.21.2.25h0l8.6,4.7a2,2,0,0,0,1.72-.13l4-2.43c.25-.15.34-.31.33-.41s-.13-.2-.2-.24l-8.6-4.7A1.42,1.42,0,0,0,442.65,305.42Z" transform="translate(-242.23 -115.06)"/><path class="cls-49" d="M435.14,307.86a2,2,0,0,1-1-.22l-8.59-4.7a.87.87,0,0,1-.52-.75,1.1,1.1,0,0,1,.62-.93l4-2.43a2.59,2.59,0,0,1,2.32-.14l8.59,4.7a.9.9,0,0,1,.52.75,1.13,1.13,0,0,1-.62.94l-4,2.42A2.6,2.6,0,0,1,435.14,307.86Zm-9.28-5.44,8.6,4.7a2,2,0,0,0,1.72-.12l4-2.43c.25-.15.34-.31.33-.41s-.13-.21-.2-.25l-8.6-4.69a2,2,0,0,0-1.72.12l-4,2.43c-.25.15-.34.31-.33.41s.13.2.2.24Z" transform="translate(-242.23 -115.06)"/><path class="cls-49" d="M423.52,301.51a2.18,2.18,0,0,1-1-.22l-8.59-4.7a.9.9,0,0,1-.52-.75,1.13,1.13,0,0,1,.62-.94l4-2.42a2.52,2.52,0,0,1,2.32-.14L429,297a.87.87,0,0,1,.52.75,1.1,1.1,0,0,1-.62.93l-4,2.43A2.69,2.69,0,0,1,423.52,301.51Zm-9.29-5.44,8.6,4.69a1.92,1.92,0,0,0,1.72-.12l4-2.43c.25-.15.34-.31.34-.41s-.14-.2-.21-.24l-8.6-4.7a2,2,0,0,0-1.72.12l-4,2.43c-.25.15-.34.31-.33.41s.13.21.2.25Z" transform="translate(-242.23 -115.06)"/><path class="cls-49" d="M411.89,295.15a2,2,0,0,1-1-.22l-8.6-4.7a.87.87,0,0,1-.52-.75,1.12,1.12,0,0,1,.63-.93l4-2.43a2.55,2.55,0,0,1,2.32-.14l8.59,4.7a.9.9,0,0,1,.52.75,1.13,1.13,0,0,1-.62.94l-4,2.42A2.59,2.59,0,0,1,411.89,295.15Zm-9.29-5.44,8.6,4.7a2,2,0,0,0,1.72-.12l4-2.43c.25-.16.34-.32.34-.41a.36.36,0,0,0-.21-.25l-8.6-4.7a1.92,1.92,0,0,0-1.72.13l-4,2.43c-.25.15-.33.31-.33.41s.13.2.2.24Z" transform="translate(-242.23 -115.06)"/><path class="cls-49" d="M400.26,288.79a2.1,2.1,0,0,1-1-.21l-8.6-4.7a.92.92,0,0,1-.52-.75,1.14,1.14,0,0,1,.63-.94l4-2.43a2.55,2.55,0,0,1,2.32-.13l8.6,4.69a.91.91,0,0,1,.51.76,1.1,1.1,0,0,1-.62.93l-4,2.43A2.68,2.68,0,0,1,400.26,288.79ZM396.13,280a2,2,0,0,0-1,.27l-4,2.43c-.26.15-.34.31-.34.41s.13.2.21.25h0l8.59,4.69a2,2,0,0,0,1.72-.12l4-2.43c.25-.15.34-.31.34-.41s-.13-.2-.21-.24l-8.6-4.7A1.42,1.42,0,0,0,396.13,280Z" transform="translate(-242.23 -115.06)"/><path class="cls-49" d="M388.63,282.44a2,2,0,0,1-1-.22l-8.6-4.7a.87.87,0,0,1-.51-.75,1.08,1.08,0,0,1,.62-.93l4-2.43a2.55,2.55,0,0,1,2.32-.14l8.6,4.7a.88.88,0,0,1,.51.75,1.1,1.1,0,0,1-.62.93l-4,2.43A2.56,2.56,0,0,1,388.63,282.44ZM379.35,277l8.59,4.7a1.92,1.92,0,0,0,1.72-.13l4-2.42c.25-.16.34-.32.34-.41s-.13-.21-.21-.25l-8.59-4.7a1.94,1.94,0,0,0-1.73.13l-4,2.42c-.26.16-.34.32-.34.42s.13.2.21.24Z" transform="translate(-242.23 -115.06)"/><path class="cls-49" d="M377,276.08a2.13,2.13,0,0,1-1-.21l-8.6-4.7a.89.89,0,0,1-.51-.76,1.11,1.11,0,0,1,.62-.93l4-2.43a2.55,2.55,0,0,1,2.32-.13l8.6,4.69a.89.89,0,0,1,.51.76,1.13,1.13,0,0,1-.62.93l-4,2.43A2.65,2.65,0,0,1,377,276.08Zm-4.13-8.79a2,2,0,0,0-1,.27l-4,2.43c-.26.15-.34.31-.34.41s.13.2.21.24h0l8.59,4.7a2,2,0,0,0,1.73-.12l4-2.43c.25-.15.34-.31.34-.41s-.13-.2-.21-.24l-8.59-4.7A1.47,1.47,0,0,0,372.87,267.29Z" transform="translate(-242.23 -115.06)"/><path class="cls-49" d="M365.37,269.73a2.13,2.13,0,0,1-1-.22l-13.85-7.57a.9.9,0,0,1-.52-.75,1.13,1.13,0,0,1,.62-.94l4-2.42a2.52,2.52,0,0,1,2.32-.14l13.85,7.57a.86.86,0,0,1,.51.75,1.08,1.08,0,0,1-.62.93l-4,2.43A2.72,2.72,0,0,1,365.37,269.73Zm-14.54-8.31L364.68,269a1.94,1.94,0,0,0,1.73-.13l4-2.42c.25-.16.34-.32.34-.42s-.13-.2-.21-.24l-13.85-7.57a1.92,1.92,0,0,0-1.72.13l-4,2.42c-.25.16-.34.31-.33.41s.13.21.2.25Z" transform="translate(-242.23 -115.06)"/></g><path class="cls-19" d="M267.21,412.72a8.25,8.25,0,0,0-1.25,1.65l-.53-.28a.68.68,0,0,0-.75-.52.68.68,0,0,0,.16,1.35.65.65,0,0,0,.21-.06l.51.27a8.49,8.49,0,0,0-.61,2l.85.15a7.43,7.43,0,0,1,2-3.93Z" transform="translate(-242.23 -115.06)"/><path class="cls-19" d="M273.43,410.11l-.58,0-.08-.71a.81.81,0,1,0-1.31-.54.79.79,0,0,0,.45.64l.09.71a8.83,8.83,0,0,0-2.34.73l.37.78a7.87,7.87,0,0,1,5.07-.59l.18-.84A8.88,8.88,0,0,0,273.43,410.11Z" transform="translate(-242.23 -115.06)"/><path class="cls-19" d="M280.9,413a.68.68,0,1,0-.76-.67l-.47.41a9.13,9.13,0,0,0-1.6-1.29l-.46.73a7.64,7.64,0,0,1,2.91,3.31l.78-.35a7.82,7.82,0,0,0-1.07-1.75l.46-.4A.74.74,0,0,0,280.9,413Z" transform="translate(-242.23 -115.06)"/><path class="cls-19" d="M272.81,421.67c-.44,0-.88,0-1.31,0a18.75,18.75,0,0,1-2.81-.2,9.24,9.24,0,0,1-1.44-.33,7,7,0,0,0,12.84-1.56,11,11,0,0,1-2.78,1.27A18.86,18.86,0,0,1,272.81,421.67Z" transform="translate(-242.23 -115.06)"/><path class="cls-19" d="M273.43,411.83a6.82,6.82,0,0,0-6.89,6.73,6.27,6.27,0,0,0,.16,1.43c.76.55,3.06,1,6.05.83,3.26-.2,6-1.09,7.56-2.45,0-.22,0-.44-.05-.66A6.84,6.84,0,0,0,273.43,411.83ZM271,419.21a2.1,2.1,0,1,1,2.1-2.1A2.1,2.1,0,0,1,271,419.21Zm5.37-1a1.54,1.54,0,1,1,1.54-1.54A1.54,1.54,0,0,1,276.35,418.18Z" transform="translate(-242.23 -115.06)"/><path class="cls-19" d="M291.55,414a3.1,3.1,0,0,0-1.57-.27c-.62.07-1,.38-1,1.14v1h2.52v1.94H289v6.18h-2.19v-6.18h-1.52V415.8h1.52v-1c0-1.9,1-3.15,2.91-3.15a4.47,4.47,0,0,1,1.8.35Z" transform="translate(-242.23 -115.06)"/><path class="cls-19" d="M296.87,417.72a3,3,0,0,0-.59-.05,1.62,1.62,0,0,0-1.71,1.82v4.43h-2.19V415.8h2.12v.89a2.55,2.55,0,0,1,2.29-1.11A2,2,0,0,1,298,416Z" transform="translate(-242.23 -115.06)"/><path class="cls-19" d="M305.56,419.85a5.12,5.12,0,0,1-.05.73h-5.75a2,2,0,0,0,2.08,1.69,3.32,3.32,0,0,0,2.06-.78l1.28,1.41a5,5,0,0,1-3.46,1.23,4.28,4.28,0,0,1-.11-8.55C304,415.58,305.55,417.31,305.56,419.85Zm-5.79-.76h3.59a1.8,1.8,0,0,0-3.59,0Z" transform="translate(-242.23 -115.06)"/><path class="cls-19" d="M314.22,419.85a5.25,5.25,0,0,1,0,.73h-5.76a2,2,0,0,0,2.09,1.69,3.3,3.3,0,0,0,2.05-.78l1.29,1.41a5,5,0,0,1-3.47,1.23,4.28,4.28,0,0,1-.1-8.55C312.61,415.58,314.21,417.31,314.22,419.85Zm-5.79-.76H312a1.75,1.75,0,0,0-1.77-1.62A1.77,1.77,0,0,0,308.43,419.09Z" transform="translate(-242.23 -115.06)"/><path class="cls-19" d="M323.67,419.85a4,4,0,0,1-3.93,4.28,3,3,0,0,1-2.39-1.06v4.2h-2.17V415.8h2.13v.89a3,3,0,0,1,2.42-1.11A4,4,0,0,1,323.67,419.85Zm-6.42,0a2.09,2.09,0,1,0,2.08-2.23A2.08,2.08,0,0,0,317.25,419.85Z" transform="translate(-242.23 -115.06)"/><path class="cls-19" d="M327.19,413.14a1.4,1.4,0,1,1-1.4-1.41A1.39,1.39,0,0,1,327.19,413.14Zm-.29,10.78h-2.19V415.8h2.19Z" transform="translate(-242.23 -115.06)"/><path class="cls-19" d="M330.55,418.69l3.05-2.89h2.69l-3.94,3.82,4,4.3h-2.69l-3.07-3.29v3.29h-2.19V411.85h2.19Z" transform="translate(-242.23 -115.06)"/></g></g></svg>